<svg width="88" height="31" viewBox="0 0 88 31" fill="none" xmlns="http://www.w3.org/2000/svg">
<path fill-rule="evenodd" clip-rule="evenodd" d="M7.26053 12.215L21.8026 11.3939C22.2872 11.3664 22.7804 11.8088 22.6843 12.2942C21.6418 17.5616 21.8264 22.763 22.9595 27.9105C23.0664 28.3937 22.5635 28.8097 22.0778 28.8097H6.82022C6.33459 28.8097 5.99141 28.2286 6.12523 27.7531C7.28428 23.6358 7.58645 19.0089 6.51158 13.0921C6.42308 12.6057 6.77598 12.2425 7.26053 12.215V12.215Z" fill="#268ACB"/>
<path fill-rule="evenodd" clip-rule="evenodd" d="M10.7992 14.3744C11.1532 14.3744 11.4392 14.666 11.4392 15.0259C11.4392 15.3858 11.1532 15.6786 10.7992 15.6786C10.4463 15.6786 10.1604 15.3858 10.1604 15.0259C10.1604 14.666 10.4463 14.3744 10.7992 14.3744V14.3744ZM17.3888 17.2579C17.3866 16.9113 17.6597 16.6284 17.9996 16.6251C18.3385 16.6229 18.6158 16.9014 18.6191 17.248V17.27V17.2745V17.2976H18.6212C18.6212 18.495 18.1453 19.5802 17.3748 20.366C16.6053 21.1507 15.5412 21.6372 14.366 21.6372C13.1907 21.6372 12.1277 21.1507 11.3572 20.366C10.5866 19.5802 10.1107 18.495 10.1107 17.2976H10.1129V17.2756C10.1129 16.9289 10.3881 16.6482 10.728 16.6482C11.068 16.6482 11.3432 16.9289 11.3432 17.2756V17.2976H11.3453C11.3453 18.1483 11.6831 18.9176 12.2302 19.4756C12.7763 20.0325 13.5318 20.3781 14.366 20.3781C15.2002 20.3781 15.9556 20.0325 16.5017 19.4756C17.0488 18.9176 17.3866 18.1483 17.3866 17.2976H17.3888V17.28V17.2579V17.2579ZM17.9327 14.3744C18.2856 14.3744 18.5727 14.666 18.5727 15.0259C18.5727 15.3858 18.2856 15.6786 17.9327 15.6786C17.5798 15.6786 17.2927 15.3858 17.2927 15.0259C17.2927 14.666 17.5798 14.3744 17.9327 14.3744Z" fill="white"/>
<path fill-rule="evenodd" clip-rule="evenodd" d="M13.2393 11.22L12.5778 5.55309L12.8864 5.22732C12.8994 5.25703 12.9145 5.28345 12.9307 5.30656C13.1508 5.1943 13.7206 4.86632 14.1167 4.6363C14.2473 4.77717 14.4329 4.86632 14.639 4.86632C14.857 4.86632 15.0523 4.76727 15.184 4.60988L16.5643 4.91475L16.9431 5.16018C16.9431 5.16018 17.4848 9.87622 17.6262 11.1617L13.2728 11.4071L13.2393 11.22ZM13.7562 3.56102L13.2835 2.74218C13.2835 2.74218 13.4875 2.65303 13.603 2.70366C13.7185 2.75428 13.8566 2.82692 13.9278 2.7928C14.0001 2.75979 14.2591 2.48464 14.3692 2.44502C14.4793 2.4054 14.5127 2.4054 14.5127 2.4054C14.5127 2.4054 14.8538 2.51215 14.9369 2.5969C15.0189 2.68054 15.0631 2.72017 15.1462 2.68605C15.2293 2.65303 15.4657 2.45602 15.5596 2.44502C15.6535 2.43401 15.7139 2.43951 15.7139 2.43951L15.4581 3.43775C15.3491 3.50159 15.2423 3.56322 15.1462 3.61935C15.0167 3.48618 14.8376 3.40473 14.639 3.40473C14.4307 3.40473 14.244 3.49498 14.1124 3.64026L13.7562 3.56102V3.56102Z" fill="#8FC43F"/>
<path fill-rule="evenodd" clip-rule="evenodd" d="M12.6986 3.32752C12.6349 3.46947 12.6716 4.93299 12.9306 5.30602C13.1508 5.19378 13.7206 4.86586 14.1167 4.63588C14.2473 4.77673 14.4329 4.86586 14.639 4.86586C14.857 4.86586 15.0523 4.76683 15.184 4.60947L16.5794 4.91758C16.6431 4.77563 16.6064 3.31212 16.3484 2.93909C16.125 3.05243 15.5423 3.38804 15.1462 3.61913C15.0167 3.48598 14.8376 3.40455 14.639 3.40455C14.4307 3.40455 14.244 3.49478 14.1124 3.64003L12.6986 3.32752V3.32752Z" fill="#1EAC4B"/>
<path fill-rule="evenodd" clip-rule="evenodd" d="M16.1617 6.76925L18.1011 7.21279L18.1658 7.2271L18.1011 7.21279L17.228 11.1837L14.7458 11.3235L15.6783 7.08182C15.7268 6.8595 15.9448 6.71972 16.1617 6.76925V6.76925ZM20.5659 7.77629L22.3552 8.18571C22.5721 8.23524 22.7103 8.45646 22.6617 8.67768L22.1728 10.9042L19.6907 11.0451L20.4062 7.7884C20.4602 7.7851 20.5141 7.78179 20.5659 7.77629V7.77629Z" fill="#DF3286"/>
<path fill-rule="evenodd" clip-rule="evenodd" d="M18.1011 7.2128L18.1658 7.2271C17.8367 6.97727 16.9873 6.40496 17.1935 5.9273C17.4492 5.33408 18.0989 5.38911 18.4755 5.75561C18.8522 6.12211 19.0615 6.75055 19.0853 7.12805C19.0853 7.12805 19.327 7.05101 19.5083 7.14236C19.6907 7.23371 19.7231 7.25022 19.7231 7.25022C19.7231 7.25022 20.6339 6.06488 21.248 6.3004C21.862 6.53593 22.0336 7.029 21.8588 7.24471C21.6948 7.44502 21.1595 7.75099 20.4062 7.78841L19.6907 11.0451L17.228 11.1837L18.1011 7.2128V7.2128ZM18.6126 6.96956C18.6126 6.96956 18.4108 6.16723 18.1334 6.02856C17.8572 5.88988 17.6867 5.94491 17.6079 6.11C17.5291 6.27399 18.0601 6.65039 18.6126 6.96956V6.96956ZM21.2944 6.78907C21.2944 6.78907 21.493 6.95085 21.4174 7.07522C21.3419 7.19959 20.6577 7.34267 20.512 7.34707C20.3663 7.35257 20.1904 7.34377 20.1904 7.34377C20.1904 7.34377 20.6123 6.94865 20.8401 6.81658C21.0678 6.68561 21.2113 6.72633 21.2944 6.78907V6.78907Z" fill="#EF9720"/>
<path fill-rule="evenodd" clip-rule="evenodd" d="M6.79761 9.15643L9.11248 8.58743L9.19126 8.56761L9.11248 8.58743L9.82582 11.6019L6.91632 11.7659L6.4404 9.75405C6.37781 9.48881 6.53861 9.22027 6.79761 9.15643V9.15643ZM12.0554 7.86214L14.1922 7.33715C14.4523 7.27332 14.7156 7.43731 14.7782 7.70145L15.6232 11.274L12.7137 11.4391L11.8903 7.96119C11.9475 7.92927 12.0025 7.89625 12.0554 7.86214V7.86214Z" fill="#EF9720"/>
<path fill-rule="evenodd" clip-rule="evenodd" d="M9.11244 8.58742L9.19123 8.56761C8.70667 8.47626 7.4969 8.31998 7.46992 7.69484C7.43754 6.92003 8.16491 6.62727 8.75955 6.81877C9.35526 7.00917 9.90673 7.57158 10.1269 7.96559C10.1269 7.96559 10.3481 7.75207 10.5899 7.75207C10.8327 7.75207 10.8769 7.75207 10.8769 7.75207C10.8769 7.75207 11.2406 5.98672 12.023 5.90748C12.8065 5.82934 13.2468 6.26737 13.1702 6.59315C13.0979 6.89801 12.6802 7.51545 11.8903 7.96119L12.7137 11.4391L9.82579 11.6019L9.11244 8.58742V8.58742ZM9.53765 8.04923C9.53765 8.04923 8.90308 7.29643 8.534 7.29643C8.16491 7.29643 8.01059 7.44831 8.01059 7.66733C8.01059 7.88635 8.77682 8.00411 9.53765 8.04923V8.04923ZM12.3263 6.40825C12.3263 6.40825 12.6241 6.47539 12.6079 6.64928C12.5907 6.82427 11.9302 7.34706 11.7748 7.4307C11.6205 7.51545 11.4284 7.60019 11.4284 7.60019C11.4284 7.60019 11.6766 6.94754 11.8525 6.6834C12.0284 6.41926 12.2054 6.38514 12.3263 6.40825Z" fill="#E41F29"/>
<path fill-rule="evenodd" clip-rule="evenodd" d="M33.7973 13.4085C37.9498 13.4085 41.3168 16.8572 41.3168 21.1123C41.3168 25.3658 37.9498 28.8146 33.7973 28.8146C29.6432 28.8146 26.2762 25.3658 26.2762 21.1123V9.16762C27.263 8.06662 28.4399 7.38859 29.8071 7.32364C29.8071 11.6928 29.8071 16.062 29.8071 20.4311C29.8071 23.6391 31.0304 26.3464 33.4447 26.3464C36.2672 26.3464 37.9282 24.0034 37.9282 21.1123C37.9282 18.2212 35.6393 15.8766 32.8167 15.8766C32.3095 15.8766 31.8176 15.9527 31.3552 16.0936C31.3552 16.0936 31.9971 14.3827 33.2235 13.4306C33.4122 13.4164 33.6039 13.4085 33.7973 13.4085ZM62.7416 13.4085C66.8941 13.4085 70.261 16.8572 70.261 21.1123C70.261 25.3658 66.8941 28.8146 62.7416 28.8146C58.5874 28.8146 55.2205 25.3658 55.2205 21.1123V9.16762C56.2072 8.06662 57.3857 7.38859 58.7514 7.32364C58.7514 11.6928 58.7514 16.062 58.7514 20.4311C58.7514 23.6391 59.9747 26.3464 62.3889 26.3464C65.2115 26.3464 66.8725 24.0034 66.8725 21.1123C66.8725 18.2212 64.5835 15.8766 61.761 15.8766C61.2537 15.8766 60.7635 15.9527 60.2995 16.0936C60.2995 16.0936 60.9429 14.3827 62.1678 13.4306C62.3565 13.4164 62.5482 13.4085 62.7416 13.4085ZM78.478 15.2208C79.4647 14.1198 80.6417 13.4417 82.0073 13.3752C82.0073 21.4022 82.0073 18.9436 82.0073 26.9706C81.0206 28.0716 79.8437 28.7496 78.478 28.8146C78.478 20.7876 78.478 23.2478 78.478 15.2208ZM80.2427 7.43612C81.2201 7.43612 82.012 8.2488 82.012 9.24841C82.012 10.2496 81.2201 11.0623 80.2427 11.0623C79.2652 11.0623 78.4734 10.2496 78.4734 9.24841C78.4734 8.2488 79.2652 7.43612 80.2427 7.43612ZM72.5995 4.73351C73.5862 3.63251 74.7647 2.95448 76.1303 2.88953C76.1303 10.9166 76.1303 18.9436 76.1303 26.9706C75.1436 28.0716 73.9667 28.7496 72.5995 28.8146C72.5995 20.7876 72.5995 12.7605 72.5995 4.73351ZM49.5322 15.2208C50.5205 14.1198 51.6974 13.4417 53.063 13.3752C53.063 21.4022 53.063 18.9436 53.063 26.9706C52.0763 28.0716 50.8994 28.7496 49.5322 28.8146C49.5322 20.7876 49.5322 23.2478 49.5322 15.2208ZM51.2984 7.43612C52.2758 7.43612 53.0677 8.2488 53.0677 9.24841C53.0677 10.2496 52.2758 11.0623 51.2984 11.0623C50.321 11.0623 49.5291 10.2496 49.5291 9.24841C49.5291 8.2488 50.321 7.43612 51.2984 7.43612ZM43.6552 4.73351C44.6419 3.63251 45.8204 2.95448 47.186 2.88953C47.186 10.9166 47.186 18.9436 47.186 26.9706C46.1993 28.0716 45.0224 28.7496 43.6552 28.8146C43.6552 20.7876 43.6552 12.7605 43.6552 4.73351Z" fill="#268ACB"/>
</svg>
