<svg width="206" height="30" viewBox="0 0 206 30" fill="none" xmlns="http://www.w3.org/2000/svg">
<path d="M29.5 15.3704C29.5 23.128 23.0219 29.4414 15 29.4414C6.9781 29.4414 0.5 23.128 0.5 15.3704C0.5 7.61271 6.9781 1.29932 15 1.29932C23.0219 1.29932 29.5 7.61271 29.5 15.3704Z" stroke="#333939"/>
<g clip-path="url(#clip0_10_823)">
<path d="M11.724 21.1979V13.333H9.15164V21.1979H11.724ZM10.4381 12.2586C11.3352 12.2586 11.8935 11.6546 11.8935 10.8999C11.8768 10.1282 11.3352 9.54102 10.4552 9.54102C9.57527 9.54102 8.99988 10.1282 8.99988 10.8999C8.99988 11.6547 9.55809 12.2586 10.4214 12.2586H10.4381H10.4381ZM13.1478 21.1979H15.7201V16.8057C15.7201 16.5707 15.7368 16.3359 15.8047 16.1678C15.9907 15.6982 16.4139 15.2118 17.1245 15.2118C18.0553 15.2118 18.4277 15.933 18.4277 16.9903V21.1978H20.9999V16.6882C20.9999 14.2724 19.7308 13.1484 18.0384 13.1484C16.6507 13.1484 16.0415 13.9366 15.703 14.4735H15.7201V13.3328H13.1478C13.1816 14.0708 13.1478 21.1977 13.1478 21.1977L13.1478 21.1979Z" fill="#333939"/>
</g>
<path d="M73.5 15.3704C73.5 23.128 67.0219 29.4414 59 29.4414C50.9781 29.4414 44.5 23.128 44.5 15.3704C44.5 7.61271 50.9781 1.29932 59 1.29932C67.0219 1.29932 73.5 7.61271 73.5 15.3704Z" stroke="#333939"/>
<g clip-path="url(#clip1_10_823)">
<path d="M57.4889 21.1988V15.7291H56V13.7597H57.4889V12.0776C57.4889 10.7558 58.3684 9.54199 60.3949 9.54199C61.2154 9.54199 61.8222 9.6184 61.8222 9.6184L61.7744 11.4575C61.7744 11.4575 61.1556 11.4516 60.4804 11.4516C59.7496 11.4516 59.6325 11.7788 59.6325 12.3217V13.7597H61.8324L61.7367 15.7291H59.6325V21.1988H57.4889Z" fill="#333939"/>
</g>
<path d="M117.5 15.3704C117.5 23.128 111.022 29.4414 103 29.4414C94.9781 29.4414 88.5 23.128 88.5 15.3704C88.5 7.61271 94.9781 1.29932 103 1.29932C111.022 1.29932 117.5 7.61271 117.5 15.3704Z" stroke="#333939"/>
<path d="M108.687 11.9481C108.269 12.1234 107.814 12.2495 107.345 12.2987C107.832 12.0177 108.196 11.5738 108.37 11.0503C107.913 11.3143 107.413 11.4994 106.891 11.5974C106.673 11.3709 106.409 11.1904 106.116 11.0673C105.823 10.9441 105.507 10.8809 105.187 10.8816C103.895 10.8816 102.856 11.8989 102.856 13.1473C102.856 13.3226 102.878 13.4979 102.914 13.6666C100.979 13.5683 99.2539 12.6705 98.1068 11.296C97.8978 11.6427 97.7883 12.0376 97.7896 12.4394C97.7896 13.2257 98.2011 13.9189 98.8287 14.3267C98.4589 14.3125 98.0977 14.2138 97.7746 14.0385V14.0664C97.7746 15.1673 98.5757 16.0797 99.6435 16.2896C99.443 16.3402 99.2368 16.366 99.0297 16.3666C98.8779 16.3666 98.7343 16.352 98.5894 16.3321C98.8847 17.2299 99.7447 17.882 100.769 17.9032C99.9675 18.5128 98.964 18.8714 97.8744 18.8714C97.6789 18.8714 97.4984 18.8647 97.3111 18.8435C98.3447 19.4876 99.5711 19.8595 100.892 19.8595C105.179 19.8595 107.525 16.4091 107.525 13.4143C107.525 13.316 107.525 13.2177 107.519 13.1194C107.972 12.7967 108.37 12.3969 108.687 11.9481Z" fill="#333939"/>
<path d="M161.5 15.3704C161.5 23.128 155.022 29.4414 147 29.4414C138.978 29.4414 132.5 23.128 132.5 15.3704C132.5 7.61271 138.978 1.29932 147 1.29932C155.022 1.29932 161.5 7.61271 161.5 15.3704Z" stroke="#333939"/>
<g clip-path="url(#clip2_10_823)">
<path d="M151.298 10.0801V14.3368H150.402V13.8608C150.057 14.2144 149.711 14.3912 149.366 14.3912C148.946 14.3912 148.736 14.1373 148.736 13.6296V10.0801H149.632V13.344C149.632 13.5344 149.711 13.6296 149.87 13.6296C150.029 13.6296 150.206 13.5208 150.402 13.3032V10.0801H151.298ZM147.98 11.0729V13.276C147.98 13.6568 147.863 13.9469 147.63 14.1464C147.397 14.3459 147.079 14.4456 146.678 14.4456C146.295 14.4456 145.985 14.3391 145.747 14.126C145.509 13.913 145.39 13.6251 145.39 13.2624V11.0593C145.39 10.7057 145.518 10.436 145.775 10.2501C146.032 10.0643 146.347 9.97132 146.72 9.97132C147.075 9.97132 147.373 10.0711 147.616 10.2705C147.859 10.47 147.98 10.7374 147.98 11.0729ZM147.07 13.344V11.0185C147.07 10.9278 147.028 10.853 146.944 10.7941C146.86 10.7352 146.771 10.7057 146.678 10.7057C146.585 10.7057 146.501 10.7352 146.426 10.7941C146.351 10.853 146.314 10.9278 146.314 11.0185V13.344C146.314 13.5798 146.435 13.6976 146.678 13.6976C146.939 13.6976 147.07 13.5798 147.07 13.344ZM144.41 8.57056H145.432L144.662 10.8145C144.625 10.9233 144.578 11.048 144.522 11.1885C144.466 11.329 144.417 11.4559 144.375 11.5693C144.333 11.6826 144.298 11.8073 144.27 11.9433V14.3368H143.262V12.0521C143.243 11.9433 143.108 11.5579 142.856 10.8961L142.058 8.57056H143.08L143.724 10.8689H143.794L144.41 8.57056ZM152.964 18.6207C152.964 19.0649 152.936 19.7223 152.88 20.5926C152.843 21.046 152.663 21.4064 152.341 21.6738C152.019 21.9413 151.625 22.0841 151.158 22.1022C150.234 22.1475 148.848 22.1702 147 22.1702C145.143 22.1702 143.757 22.1475 142.842 22.1022C142.375 22.0841 141.981 21.9413 141.659 21.6738C141.337 21.4064 141.157 21.046 141.12 20.5926C141.064 19.7223 141.036 19.0649 141.036 18.6207C141.036 18.1764 141.064 17.5191 141.12 16.6487C141.157 16.1954 141.337 15.835 141.659 15.5676C141.981 15.3001 142.375 15.1573 142.842 15.1392C143.757 15.0939 145.143 15.0712 147 15.0712C148.857 15.0712 150.243 15.0939 151.158 15.1392C151.625 15.1573 152.019 15.3001 152.341 15.5676C152.663 15.835 152.843 16.1954 152.88 16.6487C152.936 17.5191 152.964 18.1764 152.964 18.6207ZM151.97 19.8583V19.5999H151.228C151.228 19.618 151.23 19.6769 151.235 19.7767C151.24 19.8764 151.24 19.9467 151.235 19.9875C151.23 20.0283 151.219 20.0804 151.2 20.1439C151.181 20.2073 151.149 20.2527 151.102 20.2799C151.055 20.307 150.99 20.3206 150.906 20.3206C150.813 20.3206 150.74 20.2935 150.689 20.2391C150.638 20.1847 150.61 20.1303 150.605 20.0759C150.6 20.0215 150.598 19.9444 150.598 19.8447V19.1919H151.97V18.3215C151.97 18.0042 151.881 17.7548 151.704 17.5735C151.527 17.3922 151.275 17.3015 150.948 17.3015C150.631 17.3015 150.367 17.3945 150.157 17.5803C149.947 17.7662 149.842 18.0132 149.842 18.3215V19.8583C149.842 20.1847 149.933 20.4453 150.115 20.6402C150.297 20.8352 150.556 20.9326 150.892 20.9326C151.611 20.9326 151.97 20.5745 151.97 19.8583ZM149.296 20.1167V18.2127C149.296 17.6415 149.063 17.3559 148.596 17.3559C148.363 17.3559 148.148 17.4602 147.952 17.6687V16.1728H147.224V20.8374H147.952V20.5654C148.157 20.774 148.386 20.8782 148.638 20.8782C149.077 20.8782 149.296 20.6244 149.296 20.1167ZM145.796 20.8374H146.51V17.3967H145.796V20.0079C145.637 20.1801 145.493 20.2663 145.362 20.2663C145.241 20.2663 145.18 20.1892 145.18 20.0351V17.3967H144.452V20.2935C144.452 20.6924 144.62 20.8918 144.956 20.8918C145.236 20.8918 145.516 20.7468 145.796 20.4566V20.8374ZM143.612 16.8527H144.466V16.1728H141.96V16.8527H142.8V20.8374H143.612V16.8527ZM151.228 18.2807V18.6615H150.598V18.2807C150.598 18.0359 150.705 17.9135 150.92 17.9135C151.125 17.9135 151.228 18.0359 151.228 18.2807ZM148.554 18.2399V20.0487C148.554 20.2391 148.47 20.3342 148.302 20.3342C148.171 20.3342 148.055 20.2844 147.952 20.1847V18.0359C148.045 17.9452 148.148 17.8999 148.26 17.8999C148.456 17.8999 148.554 18.0132 148.554 18.2399Z" fill="#333939"/>
</g>
<path d="M205.5 15.3704C205.5 23.128 199.022 29.4414 191 29.4414C182.978 29.4414 176.5 23.128 176.5 15.3704C176.5 7.61271 182.978 1.29932 191 1.29932C199.022 1.29932 205.5 7.61271 205.5 15.3704Z" stroke="#333939"/>
<path d="M191 13.6C189.996 13.6 189.178 14.3955 189.178 15.3703C189.178 16.3451 189.996 17.1406 191 17.1406C192.004 17.1406 192.822 16.3451 192.822 15.3703C192.822 14.3955 192.004 13.6 191 13.6ZM196.466 15.3703C196.466 14.6372 196.473 13.9107 196.43 13.1789C196.388 12.329 196.188 11.5746 195.549 10.9531C194.907 10.3302 194.132 10.1376 193.257 10.0964C192.503 10.0553 191.755 10.0619 191.001 10.0619C190.247 10.0619 189.499 10.0553 188.746 10.0964C187.871 10.1376 187.094 10.3315 186.454 10.9531C185.813 11.5759 185.615 12.329 185.572 13.1789C185.53 13.9121 185.537 14.6385 185.537 15.3703C185.537 16.1021 185.53 16.8299 185.572 17.5616C185.615 18.4116 185.814 19.166 186.454 19.7875C187.095 20.4104 187.871 20.603 188.746 20.6441C189.5 20.6853 190.248 20.6787 191.001 20.6787C191.756 20.6787 192.504 20.6853 193.257 20.6441C194.132 20.603 194.909 20.4091 195.549 19.7875C196.19 19.1646 196.388 18.4116 196.43 17.5616C196.474 16.8299 196.466 16.1034 196.466 15.3703ZM191 18.0942C189.448 18.0942 188.196 16.8777 188.196 15.3703C188.196 13.8629 189.448 12.6464 191 12.6464C192.552 12.6464 193.804 13.8629 193.804 15.3703C193.804 16.8777 192.552 18.0942 191 18.0942ZM193.919 13.171C193.557 13.171 193.264 12.8868 193.264 12.5348C193.264 12.1829 193.557 11.8987 193.919 11.8987C194.281 11.8987 194.574 12.1829 194.574 12.5348C194.574 12.6184 194.557 12.7012 194.524 12.7784C194.491 12.8556 194.443 12.9258 194.382 12.9849C194.321 13.044 194.249 13.0908 194.17 13.1228C194.09 13.1547 194.005 13.1711 193.919 13.171Z" fill="#333939"/>
<defs>
<clipPath id="clip0_10_823">
<rect width="12" height="11.6568" fill="white" transform="translate(9 9.54199)"/>
</clipPath>
<clipPath id="clip1_10_823">
<rect width="5.83244" height="11.6568" fill="white" transform="translate(56 9.54199)"/>
</clipPath>
<clipPath id="clip2_10_823">
<rect width="14" height="13.5996" fill="white" transform="translate(140 8.57056)"/>
</clipPath>
</defs>
</svg>
