<svg width="48" height="49" viewBox="0 0 48 49" fill="none" xmlns="http://www.w3.org/2000/svg">
<path fill-rule="evenodd" clip-rule="evenodd" d="M24 4.79919C15.1634 4.79919 8 11.9626 8 20.7992V32.7992C8 35.0083 9.79086 36.7992 12 36.7992H14C16.2091 36.7992 18 35.0083 18 32.7992V26.7992C18 24.5901 16.2091 22.7992 14 22.7992H12V20.7992C12 14.1718 17.3726 8.79919 24 8.79919C30.6274 8.79919 36 14.1718 36 20.7992V22.7992H34C31.7909 22.7992 30 24.5901 30 26.7992V32.7992C30 35.0083 31.7909 36.7992 34 36.7992L36 36.7992C36 39.0083 34.2091 40.7992 32 40.7992L24 40.7992C22.8954 40.7992 22 41.6946 22 42.7992C22 43.9038 22.8954 44.7992 24 44.7992L32 44.7992C36.4183 44.7992 40 41.2175 40 36.7992V20.7992C40 11.9626 32.8366 4.79919 24 4.79919ZM36 32.7992L36 26.7992H34V32.7992H36ZM14 26.7992H12L12 32.7992H14V26.7992Z" fill="url(#paint0_linear_15_9479)"/>
<defs>
<linearGradient id="paint0_linear_15_9479" x1="40" y1="44.7992" x2="2.66696" y2="38.9732" gradientUnits="userSpaceOnUse">
<stop stop-color="#60EFFF" stop-opacity="0.4"/>
<stop offset="1" stop-color="#51CEB1" stop-opacity="0.6"/>
</linearGradient>
</defs>
</svg>
