<svg width="12" height="10" viewBox="0 0 12 10" fill="none" xmlns="http://www.w3.org/2000/svg">
<path d="M10.8 0.511597H1.2C0.54 0.511597 0 0.991988 0 1.57913V7.98434C0 8.57149 0.54 9.05188 1.2 9.05188H10.8C11.46 9.05188 12 8.57149 12 7.98434V1.57913C12 0.991988 11.46 0.511597 10.8 0.511597ZM10.56 2.78011L6.636 4.96322C6.246 5.18206 5.754 5.18206 5.364 4.96322L1.44 2.78011C1.37984 2.75006 1.32715 2.70947 1.28513 2.66079C1.24312 2.6121 1.21264 2.55634 1.19555 2.49688C1.17845 2.43741 1.1751 2.37548 1.18569 2.31483C1.19629 2.25418 1.2206 2.19607 1.25717 2.14402C1.29374 2.09197 1.34179 2.04706 1.39844 2.01202C1.45508 1.97697 1.51912 1.95251 1.5867 1.94012C1.65427 1.92773 1.72397 1.92766 1.79157 1.93993C1.85918 1.9522 1.92328 1.97654 1.98 2.01148L6 4.24797L10.02 2.01148C10.0767 1.97654 10.1408 1.9522 10.2084 1.93993C10.276 1.92766 10.3457 1.92773 10.4133 1.94012C10.4809 1.95251 10.5449 1.97697 10.6016 2.01202C10.6582 2.04706 10.7063 2.09197 10.7428 2.14402C10.7794 2.19607 10.8037 2.25418 10.8143 2.31483C10.8249 2.37548 10.8215 2.43741 10.8045 2.49688C10.7874 2.55634 10.7569 2.6121 10.7149 2.66079C10.6728 2.70947 10.6202 2.75006 10.56 2.78011Z" fill="#333939"/>
</svg>
