<svg width="30" height="30" viewBox="0 0 30 30" fill="none" xmlns="http://www.w3.org/2000/svg">
<path d="M29.5 14.571C29.5 22.3287 23.0219 28.6421 15 28.6421C6.9781 28.6421 0.5 22.3287 0.5 14.571C0.5 6.8134 6.9781 0.5 15 0.5C23.0219 0.5 29.5 6.8134 29.5 14.571Z" stroke="#333939"/>
<g clip-path="url(#clip0_319_375)">
<path d="M13.4889 20.3995V14.9298H12V12.9604H13.4889V11.2783C13.4889 9.95653 14.3684 8.74268 16.3949 8.74268C17.2154 8.74268 17.8222 8.81909 17.8222 8.81909L17.7744 10.6581C17.7744 10.6581 17.1556 10.6523 16.4804 10.6523C15.7496 10.6523 15.6325 10.9794 15.6325 11.5224V12.9604H17.8324L17.7367 14.9298H15.6325V20.3995H13.4889Z" fill="#333939"/>
</g>
<defs>
<clipPath id="clip0_319_375">
<rect width="5.83244" height="11.6568" fill="white" transform="translate(12 8.74268)"/>
</clipPath>
</defs>
</svg>
