<svg width="23" height="20" viewBox="0 0 23 20" fill="none" xmlns="http://www.w3.org/2000/svg">
<path fill-rule="evenodd" clip-rule="evenodd" d="M21.772 10.2273C21.772 9.51825 21.7039 8.83643 21.5775 8.18188H11.5V12.0501H17.2585C17.0105 13.3001 16.2566 14.3592 15.1234 15.0682V17.5773H18.5815C20.6047 15.8364 21.772 13.2728 21.772 10.2273Z" fill="#4285F4"/>
<path fill-rule="evenodd" clip-rule="evenodd" d="M11.4999 19.9999C14.3889 19.9999 16.811 19.1044 18.5814 17.5772L15.1233 15.0681C14.1652 15.6681 12.9395 16.0226 11.4999 16.0226C8.71303 16.0226 6.35417 14.2635 5.51276 11.8999H1.93799V14.4908C3.69862 17.759 7.31717 19.9999 11.4999 19.9999Z" fill="#34A853"/>
<path fill-rule="evenodd" clip-rule="evenodd" d="M5.51267 11.8999C5.29867 11.2999 5.17708 10.659 5.17708 9.99994C5.17708 9.34085 5.29867 8.69994 5.51267 8.09994V5.50903H1.9379C1.21321 6.85903 0.799805 8.38631 0.799805 9.99994C0.799805 11.6136 1.21321 13.1409 1.9379 14.4909L5.51267 11.8999Z" fill="#FBBC05"/>
<path fill-rule="evenodd" clip-rule="evenodd" d="M11.4999 3.97727C13.0709 3.97727 14.4813 4.48182 15.5902 5.47273L18.6592 2.60455C16.8061 0.990909 14.384 0 11.4999 0C7.31717 0 3.69862 2.24091 1.93799 5.50909L5.51276 8.1C6.35417 5.73636 8.71303 3.97727 11.4999 3.97727Z" fill="#EA4335"/>
</svg>
