<svg width="36" height="37" viewBox="0 0 36 37" fill="none" xmlns="http://www.w3.org/2000/svg">
<path d="M35.9999 4.79919C35.9999 2.59006 34.2091 0.799194 31.9999 0.799194H25.9999C24.8954 0.799194 23.9999 1.69463 23.9999 2.79919C23.9999 3.90376 24.8954 4.7992 25.9999 4.79919H29.5665C28.3922 5.94293 26.8125 7.19122 24.9148 8.49414C21.8645 10.5884 18.2217 12.6724 14.6934 14.5294C11.1718 16.3828 7.79949 17.9918 5.30527 19.1382C4.05913 19.711 3.0345 20.1672 2.32287 20.4796C1.96711 20.6358 1.68973 20.756 1.50217 20.8368L1.28968 20.9279L1.23668 20.9504L1.22062 20.9573C0.20338 21.3877 -0.272413 22.5612 0.157965 23.5785C0.588349 24.5957 1.76191 25.0715 2.77918 24.6411L1.9999 22.7992C2.77918 24.6411 2.78106 24.6403 2.78106 24.6403L2.80084 24.6319L2.85959 24.6069L3.08406 24.5107C3.2798 24.4264 3.56589 24.3024 3.93083 24.1422C4.66061 23.8218 5.70629 23.3562 6.97578 22.7727C9.51281 21.6066 12.953 19.9655 16.5564 18.069C20.1531 16.176 23.9478 14.01 27.1788 11.7917C28.9406 10.5821 30.6099 9.3075 31.9999 8.00522V10.7992C31.9999 11.9038 32.8954 12.7992 33.9999 12.7992C35.1045 12.7992 35.9999 11.9038 35.9999 10.7992V4.79919Z" fill="url(#paint0_linear_336_24)"/>
<path fill-rule="evenodd" clip-rule="evenodd" d="M25.9999 16.7992C25.9999 15.6946 26.8954 14.7992 27.9999 14.7992H33.9999C35.1045 14.7992 35.9999 15.6946 35.9999 16.7992V34.7992C35.9999 35.9038 35.1045 36.7992 33.9999 36.7992H27.9999C26.8954 36.7992 25.9999 35.9038 25.9999 34.7992V16.7992ZM29.9999 32.7992V18.7992H31.9999V32.7992H29.9999Z" fill="url(#paint1_linear_336_24)"/>
<path fill-rule="evenodd" clip-rule="evenodd" d="M14.9999 20.7992C13.8954 20.7992 12.9999 21.6946 12.9999 22.7992V34.7992C12.9999 35.9038 13.8954 36.7992 14.9999 36.7992H20.9999C22.1045 36.7992 22.9999 35.9038 22.9999 34.7992V22.7992C22.9999 21.6946 22.1045 20.7992 20.9999 20.7992H14.9999ZM16.9999 32.7992H18.9999V24.7992H16.9999V32.7992Z" fill="url(#paint2_linear_336_24)"/>
<path fill-rule="evenodd" clip-rule="evenodd" d="M1.99994 26.7992C0.895375 26.7992 -5.57316e-05 27.6946 -5.57316e-05 28.7992V34.7992C-5.57316e-05 35.9038 0.895375 36.7992 1.99994 36.7992H7.99994C9.10451 36.7992 9.99994 35.9038 9.99994 34.7992V28.7992C9.99994 27.6946 9.10451 26.7992 7.99994 26.7992H1.99994ZM3.99994 30.7992V32.7992H5.99994V30.7992H3.99994Z" fill="url(#paint3_linear_336_24)"/>
<defs>
<linearGradient id="paint0_linear_336_24" x1="35.9999" y1="36.7992" x2="-5.44606" y2="28.7142" gradientUnits="userSpaceOnUse">
<stop stop-color="#60EFFF" stop-opacity="0.4"/>
<stop offset="1" stop-color="#51CEB1" stop-opacity="0.6"/>
</linearGradient>
<linearGradient id="paint1_linear_336_24" x1="35.9999" y1="36.7992" x2="-5.44606" y2="28.7142" gradientUnits="userSpaceOnUse">
<stop stop-color="#60EFFF" stop-opacity="0.4"/>
<stop offset="1" stop-color="#51CEB1" stop-opacity="0.6"/>
</linearGradient>
<linearGradient id="paint2_linear_336_24" x1="35.9999" y1="36.7992" x2="-5.44606" y2="28.7142" gradientUnits="userSpaceOnUse">
<stop stop-color="#60EFFF" stop-opacity="0.4"/>
<stop offset="1" stop-color="#51CEB1" stop-opacity="0.6"/>
</linearGradient>
<linearGradient id="paint3_linear_336_24" x1="35.9999" y1="36.7992" x2="-5.44606" y2="28.7142" gradientUnits="userSpaceOnUse">
<stop stop-color="#60EFFF" stop-opacity="0.4"/>
<stop offset="1" stop-color="#51CEB1" stop-opacity="0.6"/>
</linearGradient>
</defs>
</svg>
