<svg width="30" height="30" viewBox="0 0 30 30" fill="none" xmlns="http://www.w3.org/2000/svg">
<path d="M29.5 14.571C29.5 22.3287 23.0219 28.6421 15 28.6421C6.9781 28.6421 0.5 22.3287 0.5 14.571C0.5 6.8134 6.9781 0.5 15 0.5C23.0219 0.5 29.5 6.8134 29.5 14.571Z" stroke="#333939"/>
<path d="M15 12.8006C13.9965 12.8006 13.1775 13.5962 13.1775 14.571C13.1775 15.5458 13.9965 16.3413 15 16.3413C16.0035 16.3413 16.8225 15.5458 16.8225 14.571C16.8225 13.5962 16.0035 12.8006 15 12.8006ZM20.466 14.571C20.466 13.8379 20.4729 13.1114 20.4305 12.3796C20.3881 11.5297 20.1885 10.7753 19.5486 10.1538C18.9074 9.53088 18.1322 9.3383 17.2572 9.29713C16.5025 9.25596 15.7547 9.2626 15.0014 9.2626C14.2467 9.2626 13.4988 9.25596 12.7455 9.29713C11.8705 9.3383 11.0939 9.5322 10.4541 10.1538C9.81289 10.7766 9.61465 11.5297 9.57227 12.3796C9.52989 13.1127 9.53672 13.8392 9.53672 14.571C9.53672 15.3028 9.52989 16.0305 9.57227 16.7623C9.61465 17.6123 9.81426 18.3667 10.4541 18.9882C11.0953 19.6111 11.8705 19.8037 12.7455 19.8448C13.5002 19.886 14.248 19.8794 15.0014 19.8794C15.7561 19.8794 16.5039 19.886 17.2572 19.8448C18.1322 19.8037 18.9088 19.6098 19.5486 18.9882C20.1898 18.3653 20.3881 17.6123 20.4305 16.7623C20.4742 16.0305 20.466 15.3041 20.466 14.571V14.571ZM15 17.2949C13.4482 17.2949 12.1959 16.0784 12.1959 14.571C12.1959 13.0636 13.4482 11.8471 15 11.8471C16.5518 11.8471 17.8041 13.0636 17.8041 14.571C17.8041 16.0784 16.5518 17.2949 15 17.2949ZM17.9189 12.3717C17.5566 12.3717 17.2641 12.0874 17.2641 11.7355C17.2641 11.3836 17.5566 11.0994 17.9189 11.0994C18.2813 11.0994 18.5738 11.3836 18.5738 11.7355C18.5739 11.8191 18.5571 11.9018 18.5242 11.9791C18.4913 12.0563 18.4431 12.1265 18.3823 12.1856C18.3214 12.2447 18.2492 12.2915 18.1697 12.3235C18.0902 12.3554 18.005 12.3718 17.9189 12.3717V12.3717Z" fill="#333939"/>
</svg>
