<svg width="36" height="37" viewBox="0 0 36 37" fill="none" xmlns="http://www.w3.org/2000/svg">
<path fill-rule="evenodd" clip-rule="evenodd" d="M3.60119 3.31363C4.20865 1.795 5.67948 0.799194 7.3151 0.799194H28.607C30.2426 0.799194 31.7134 1.795 32.3209 3.31363L35.5319 11.3412C35.7807 11.9631 36.0544 12.8978 35.8512 13.9458C35.5971 15.2565 34.9172 16.415 33.9611 17.2713V32.7992C33.9611 35.0083 32.1702 36.7992 29.9611 36.7992H5.96106C3.75192 36.7992 1.96106 35.0083 1.96106 32.7992V17.2713C1.00486 16.4151 0.324991 15.2565 0.0708439 13.9458C-0.13235 12.8978 0.141396 11.9631 0.390173 11.3412L3.60119 3.31363ZM29.9611 18.7992V32.7992H23.9611V25.7992C23.9611 24.1423 22.6179 22.7992 20.9611 22.7992H14.9611C13.3042 22.7992 11.9611 24.1423 11.9611 25.7992L11.9611 32.7992H5.96106V18.7992C7.49776 18.7992 8.89953 18.2215 9.96103 17.2714C11.0225 18.2215 12.4243 18.7992 13.961 18.7992C15.4977 18.7992 16.8995 18.2215 17.961 17.2714C19.0226 18.2215 20.4243 18.7992 21.961 18.7992C23.4977 18.7992 24.8995 18.2215 25.961 17.2714C27.0226 18.2215 28.4243 18.7992 29.9611 18.7992ZM15.9611 32.7992H19.9611V26.7992H15.9611L15.9611 32.7992ZM11.961 12.7992C11.961 13.9038 12.8565 14.7992 13.961 14.7992C15.0656 14.7992 15.961 13.9038 15.961 12.7992C15.961 11.6946 16.8565 10.7992 17.961 10.7992C19.0656 10.7992 19.961 11.6946 19.961 12.7992C19.961 13.9038 20.8565 14.7992 21.961 14.7992C23.0656 14.7992 23.961 13.9038 23.961 12.7992C23.961 11.6946 24.8565 10.7992 25.961 10.7992C27.0656 10.7992 27.961 11.6946 27.961 12.7992C27.961 13.9038 28.8565 14.7992 29.961 14.7992C30.9281 14.7992 31.7387 14.1109 31.922 13.1966C31.9217 13.1888 31.9206 13.1722 31.9161 13.145C31.9048 13.0778 31.8771 12.9746 31.818 12.8267L28.607 4.79919L7.3151 4.7992L4.10408 12.8267C4.04493 12.9746 4.01724 13.0778 4.00599 13.145C4.00143 13.1721 4.00034 13.1888 4.00012 13.1966C4.18338 14.1109 4.99398 14.7992 5.96103 14.7992C7.0656 14.7992 7.96103 13.9038 7.96103 12.7992C7.96103 11.6946 8.85646 10.7992 9.96103 10.7992C11.0656 10.7992 11.961 11.6946 11.961 12.7992Z" fill="url(#paint0_linear_336_253)"/>
<defs>
<linearGradient id="paint0_linear_336_253" x1="35.9221" y1="36.7992" x2="-5.44018" y2="28.7481" gradientUnits="userSpaceOnUse">
<stop stop-color="#60EFFF" stop-opacity="0.4"/>
<stop offset="1" stop-color="#51CEB1" stop-opacity="0.6"/>
</linearGradient>
</defs>
</svg>
