<svg width="30" height="30" viewBox="0 0 30 30" fill="none" xmlns="http://www.w3.org/2000/svg">
<path d="M29.5 14.571C29.5 22.3287 23.0219 28.6421 15 28.6421C6.9781 28.6421 0.5 22.3287 0.5 14.571C0.5 6.8134 6.9781 0.5 15 0.5C23.0219 0.5 29.5 6.8134 29.5 14.571Z" stroke="#333939"/>
<g clip-path="url(#clip0_319_371)">
<path d="M11.724 20.3985V12.5337H9.15164V20.3985H11.724ZM10.4381 11.4592C11.3352 11.4592 11.8935 10.8553 11.8935 10.1006C11.8768 9.32887 11.3352 8.7417 10.4552 8.7417C9.57527 8.7417 8.99988 9.32888 8.99988 10.1006C8.99988 10.8553 9.55809 11.4592 10.4214 11.4592H10.4381H10.4381ZM13.1478 20.3985H15.7201V16.0064C15.7201 15.7714 15.7368 15.5366 15.8047 15.3685C15.9907 14.8989 16.4139 14.4125 17.1245 14.4125C18.0553 14.4125 18.4277 15.1337 18.4277 16.191V20.3985H20.9999V15.8889C20.9999 13.4731 19.7308 12.349 18.0384 12.349C16.6507 12.349 16.0415 13.1373 15.703 13.6742H15.7201V12.5335H13.1478C13.1816 13.2715 13.1478 20.3984 13.1478 20.3984L13.1478 20.3985Z" fill="#333939"/>
</g>
<defs>
<clipPath id="clip0_319_371">
<rect width="12" height="11.6568" fill="white" transform="translate(9 8.74268)"/>
</clipPath>
</defs>
</svg>
