<svg width="118" height="22" viewBox="0 0 118 22" fill="none" xmlns="http://www.w3.org/2000/svg">
<path fill-rule="evenodd" clip-rule="evenodd" d="M23.5824 21.9911C24.6732 21.9911 25.355 20.8102 24.8096 19.8655L13.7493 0.708533C13.2038 -0.236183 11.8403 -0.236176 11.2948 0.708545L5.70717 10.3869C6.11963 10.3125 6.54444 10.2737 6.97831 10.2737C9.63536 10.2737 11.9525 11.729 13.1762 13.886C13.2139 13.9143 13.2462 13.9502 13.2706 13.9924L17.0705 20.574C17.5768 21.4509 18.5124 21.9911 19.5249 21.9911H23.5824ZM11.5838 17.3944C11.5838 19.938 9.52183 21.9999 6.97831 21.9999H6.95616H1.36637C0.316405 21.9999 -0.34005 20.8636 0.184481 19.954L3.01237 15.0503L3.01277 15.051C3.8147 13.6969 5.29048 12.789 6.97831 12.789C9.52183 12.789 11.5838 14.8509 11.5838 17.3944Z" fill="#2FAF91"/>
<path d="M42.4584 0.87891C42.4584 0.393501 42.8519 0 43.3373 0H45.2452C45.7306 0 46.1241 0.393502 46.1241 0.87891V16.8529C46.1241 17.3383 45.7306 17.7318 45.2452 17.7318H43.3373C42.8519 17.7318 42.4584 17.3383 42.4584 16.8529V0.87891Z" fill="#333939"/>
<path d="M78.9014 10.0842V16.8529C78.9014 17.3383 78.5079 17.7318 78.0225 17.7318H76.1156C75.6301 17.7318 75.2366 17.3383 75.2366 16.8529V0.910079C75.2366 0.42467 75.6301 0.0311674 76.1156 0.0311674H77.9193C78.4047 0.0311674 78.7982 0.424669 78.7982 0.910078V6.83748H78.953C79.2513 6.05664 79.733 5.44518 80.3983 5.00309C81.0636 4.55526 81.8787 4.29362 82.8824 4.29362C83.8 4.29362 84.6194 4.5323 85.3018 4.93419C85.9901 5.33035 86.5234 5.90162 86.902 6.64801C87.2862 7.38865 87.4755 8.2757 87.4697 9.30916V16.8529C87.4697 17.3383 87.0762 17.7318 86.5908 17.7318H84.6839C84.1985 17.7318 83.805 17.3383 83.805 16.8529V9.96368C83.8107 9.1484 83.6042 8.51397 83.1856 8.0604C82.7726 7.60682 82.1934 7.38004 81.4478 7.38004C80.9489 7.38004 80.5073 7.48626 80.123 7.69869C79.7445 7.91112 79.4462 8.22116 79.2283 8.6288C79.0161 9.0307 78.9071 9.51585 78.9014 10.0842Z" fill="#333939"/>
<path fill-rule="evenodd" clip-rule="evenodd" d="M105.358 4.26246C104.873 4.26246 104.48 4.65596 104.48 5.14137V10.8106C104.478 10.8726 104.477 10.9347 104.477 10.9971C104.477 11.0595 104.478 11.1217 104.48 11.1837V21.1153C104.48 21.6007 104.873 21.9942 105.358 21.9942H107.266C107.752 21.9942 108.145 21.6007 108.145 21.1153V16.9948C109.065 17.466 110.107 17.7318 111.212 17.7318C114.931 17.7318 117.946 14.7166 117.946 10.9971C117.946 7.27769 114.931 4.26248 111.212 4.26248C110.103 4.26248 109.057 4.53035 108.135 5.00489C108.069 4.5843 107.705 4.26246 107.266 4.26246H105.358ZM111.212 14.0584C112.902 14.0584 114.273 12.6878 114.273 10.9971C114.273 9.30648 112.902 7.93593 111.212 7.93593C109.521 7.93593 108.151 9.30648 108.151 10.9971C108.151 12.6878 109.521 14.0584 111.212 14.0584Z" fill="#333939"/>
<path fill-rule="evenodd" clip-rule="evenodd" d="M61.3904 10.9971C61.3904 14.7166 58.3752 17.7318 54.6557 17.7318C50.9363 17.7318 47.9211 14.7166 47.9211 10.9971C47.9211 7.27769 50.9363 4.26248 54.6557 4.26248C58.3752 4.26248 61.3904 7.27769 61.3904 10.9971ZM57.717 10.9972C57.717 12.6879 56.3464 14.0584 54.6558 14.0584C52.9651 14.0584 51.5945 12.6879 51.5945 10.9972C51.5945 9.30654 52.9651 7.93599 54.6558 7.93599C56.3464 7.93599 57.717 9.30654 57.717 10.9972Z" fill="#333939"/>
<path fill-rule="evenodd" clip-rule="evenodd" d="M95.9202 17.7318C99.6396 17.7318 102.655 14.7166 102.655 10.9971C102.655 7.27769 99.6396 4.26248 95.9202 4.26248C92.2007 4.26248 89.1855 7.27769 89.1855 10.9971C89.1855 14.7166 92.2007 17.7318 95.9202 17.7318ZM95.9201 14.0584C97.6108 14.0584 98.9814 12.6878 98.9814 10.9971C98.9814 9.30648 97.6108 7.93593 95.9201 7.93593C94.2295 7.93593 92.8589 9.30648 92.8589 10.9971C92.8589 12.6878 94.2295 14.0584 95.9201 14.0584Z" fill="#333939"/>
<path fill-rule="evenodd" clip-rule="evenodd" d="M37.8839 4.26246C37.4441 4.26246 37.0797 4.58553 37.0152 5.0073C36.0917 4.53125 35.044 4.26248 33.9335 4.26248C30.2141 4.26248 27.1989 7.27769 27.1989 10.9971C27.1989 14.7166 30.2141 17.7318 33.9335 17.7318C35.044 17.7318 36.0917 17.463 37.0152 16.987C37.0797 17.4087 37.4441 17.7318 37.8839 17.7318H39.7918C40.2772 17.7318 40.6707 17.3383 40.6707 16.8529V5.14137C40.6707 4.65596 40.2772 4.26246 39.7918 4.26246H37.8839ZM33.9335 14.0584C35.6242 14.0584 36.9947 12.6878 36.9947 10.9971C36.9947 9.30648 35.6242 7.93593 33.9335 7.93593C32.2428 7.93593 30.8723 9.30648 30.8723 10.9971C30.8723 12.6878 32.2428 14.0584 33.9335 14.0584Z" fill="#333939"/>
<path d="M65.3745 17.1452C66.2498 17.5363 67.2479 17.7318 68.3688 17.7318C69.413 17.7318 70.3266 17.5597 71.1097 17.2156C71.9082 16.8714 72.5148 16.4021 72.9294 15.8076C73.3593 15.1975 73.5743 14.5092 73.5743 13.7426C73.5589 12.8353 73.3209 12.1157 72.8603 11.5838C72.4149 11.0363 71.8929 10.6452 71.294 10.4105C70.6951 10.1602 69.9197 9.9099 68.9677 9.6596C68.1385 9.47187 67.5243 9.28415 67.125 9.09642C66.7411 8.9087 66.5492 8.62711 66.5492 8.25165C66.5492 7.93878 66.672 7.6963 66.9177 7.52422C67.1634 7.33649 67.5166 7.24263 67.9772 7.24263C68.5147 7.24263 68.9446 7.3756 69.2671 7.64154C69.4021 7.74785 69.5151 7.86916 69.606 8.00546C69.8499 8.37142 70.194 8.72097 70.6339 8.72097H72.5314C73.0523 8.72097 73.467 8.26654 73.3275 7.76465C73.0743 6.85409 72.5961 6.09344 71.8929 5.4827C70.9715 4.66922 69.7047 4.26248 68.0924 4.26248C67.0022 4.26248 66.0578 4.44238 65.2593 4.80219C64.4762 5.162 63.8773 5.65478 63.4628 6.28053C63.0635 6.89064 62.8639 7.57115 62.8639 8.32205C62.8639 9.21375 63.0865 9.92554 63.5318 10.4574C63.9772 10.9737 64.5069 11.357 65.1211 11.6073C65.7353 11.8419 66.5031 12.0687 67.4244 12.2878C68.2843 12.5068 68.9062 12.7101 69.2901 12.8979C69.674 13.07 69.866 13.3437 69.866 13.7192C69.866 14.0321 69.7278 14.2902 69.4514 14.4935C69.1903 14.6813 68.8141 14.7751 68.3227 14.7751C67.7853 14.7751 67.3323 14.6343 66.9638 14.3527C66.8216 14.2441 66.7034 14.1226 66.6092 13.9884C66.3502 13.6191 65.9987 13.2499 65.5477 13.2499H63.3944C62.8839 13.2499 62.4718 13.6886 62.6156 14.1784C62.7586 14.6656 62.9872 15.1226 63.3015 15.5495C63.8083 16.2222 64.4992 16.7541 65.3745 17.1452Z" fill="#333939"/>
</svg>
