<svg width="1140" height="126" viewBox="0 0 1140 126" fill="none" xmlns="http://www.w3.org/2000/svg">
<path fill-rule="evenodd" clip-rule="evenodd" d="M17.2605 59.215L31.8026 58.3939C32.2872 58.3664 32.7804 58.8088 32.6843 59.2942C31.6418 64.5616 31.8264 69.763 32.9595 74.9105C33.0664 75.3937 32.5635 75.8097 32.0778 75.8097H16.8202C16.3346 75.8097 15.9914 75.2286 16.1252 74.7531C17.2843 70.6358 17.5864 66.0089 16.5116 60.0921C16.4231 59.6057 16.776 59.2425 17.2605 59.215V59.215Z" fill="#268ACB"/>
<path fill-rule="evenodd" clip-rule="evenodd" d="M20.7992 61.3744C21.1532 61.3744 21.4392 61.666 21.4392 62.0259C21.4392 62.3858 21.1532 62.6786 20.7992 62.6786C20.4463 62.6786 20.1604 62.3858 20.1604 62.0259C20.1604 61.666 20.4463 61.3744 20.7992 61.3744V61.3744ZM27.3888 64.2579C27.3866 63.9113 27.6597 63.6284 27.9996 63.6251C28.3385 63.6229 28.6158 63.9014 28.6191 64.248V64.27V64.2745V64.2976H28.6212C28.6212 65.495 28.1453 66.5802 27.3748 67.366C26.6053 68.1507 25.5412 68.6372 24.366 68.6372C23.1907 68.6372 22.1277 68.1507 21.3572 67.366C20.5866 66.5802 20.1107 65.495 20.1107 64.2976H20.1129V64.2756C20.1129 63.9289 20.3881 63.6482 20.728 63.6482C21.068 63.6482 21.3432 63.9289 21.3432 64.2756V64.2976H21.3453C21.3453 65.1483 21.6831 65.9176 22.2302 66.4756C22.7763 67.0325 23.5318 67.3781 24.366 67.3781C25.2002 67.3781 25.9556 67.0325 26.5017 66.4756C27.0488 65.9176 27.3866 65.1483 27.3866 64.2976H27.3888V64.28V64.2579V64.2579ZM27.9327 61.3744C28.2856 61.3744 28.5727 61.666 28.5727 62.0259C28.5727 62.3858 28.2856 62.6786 27.9327 62.6786C27.5798 62.6786 27.2927 62.3858 27.2927 62.0259C27.2927 61.666 27.5798 61.3744 27.9327 61.3744Z" fill="white"/>
<path fill-rule="evenodd" clip-rule="evenodd" d="M23.2393 58.22L22.5778 52.5531L22.8864 52.2273C22.8994 52.257 22.9145 52.2834 22.9307 52.3066C23.1508 52.1943 23.7206 51.8663 24.1167 51.6363C24.2473 51.7772 24.4329 51.8663 24.639 51.8663C24.857 51.8663 25.0523 51.7673 25.184 51.6099L26.5643 51.9147L26.9431 52.1602C26.9431 52.1602 27.4848 56.8762 27.6262 58.1617L23.2728 58.4071L23.2393 58.22ZM23.7562 50.561L23.2835 49.7422C23.2835 49.7422 23.4875 49.653 23.603 49.7037C23.7185 49.7543 23.8566 49.8269 23.9278 49.7928C24.0001 49.7598 24.2591 49.4846 24.3692 49.445C24.4793 49.4054 24.5127 49.4054 24.5127 49.4054C24.5127 49.4054 24.8538 49.5122 24.9369 49.5969C25.0189 49.6805 25.0631 49.7202 25.1462 49.686C25.2293 49.653 25.4657 49.456 25.5596 49.445C25.6535 49.434 25.7139 49.4395 25.7139 49.4395L25.4581 50.4378C25.3491 50.5016 25.2423 50.5632 25.1462 50.6193C25.0167 50.4862 24.8376 50.4047 24.639 50.4047C24.4307 50.4047 24.244 50.495 24.1124 50.6403L23.7562 50.561V50.561Z" fill="#8FC43F"/>
<path fill-rule="evenodd" clip-rule="evenodd" d="M22.6986 50.3275C22.6349 50.4695 22.6716 51.933 22.9306 52.306C23.1508 52.1938 23.7206 51.8659 24.1167 51.6359C24.2473 51.7767 24.4329 51.8659 24.639 51.8659C24.857 51.8659 25.0523 51.7668 25.184 51.6095L26.5794 51.9176C26.6431 51.7756 26.6064 50.3121 26.3484 49.9391C26.125 50.0524 25.5423 50.388 25.1462 50.6191C25.0167 50.486 24.8376 50.4046 24.639 50.4046C24.4307 50.4046 24.244 50.4948 24.1124 50.64L22.6986 50.3275V50.3275Z" fill="#1EAC4B"/>
<path fill-rule="evenodd" clip-rule="evenodd" d="M26.1617 53.7692L28.1011 54.2128L28.1658 54.2271L28.1011 54.2128L27.228 58.1837L24.7458 58.3235L25.6783 54.0818C25.7268 53.8595 25.9448 53.7197 26.1617 53.7692V53.7692ZM30.5659 54.7763L32.3552 55.1857C32.5721 55.2352 32.7103 55.4565 32.6617 55.6777L32.1728 57.9042L29.6907 58.0451L30.4062 54.7884C30.4602 54.7851 30.5141 54.7818 30.5659 54.7763V54.7763Z" fill="#DF3286"/>
<path fill-rule="evenodd" clip-rule="evenodd" d="M28.1011 54.2128L28.1658 54.2271C27.8367 53.9773 26.9873 53.405 27.1935 52.9273C27.4492 52.3341 28.0989 52.3891 28.4755 52.7556C28.8522 53.1221 29.0615 53.7505 29.0853 54.1281C29.0853 54.1281 29.327 54.051 29.5083 54.1424C29.6907 54.2337 29.7231 54.2502 29.7231 54.2502C29.7231 54.2502 30.6339 53.0649 31.248 53.3004C31.862 53.5359 32.0336 54.029 31.8588 54.2447C31.6948 54.445 31.1595 54.751 30.4062 54.7884L29.6907 58.0451L27.228 58.1837L28.1011 54.2128V54.2128ZM28.6126 53.9696C28.6126 53.9696 28.4108 53.1672 28.1334 53.0286C27.8572 52.8899 27.6867 52.9449 27.6079 53.11C27.5291 53.274 28.0601 53.6504 28.6126 53.9696V53.9696ZM31.2944 53.7891C31.2944 53.7891 31.493 53.9509 31.4174 54.0752C31.3419 54.1996 30.6577 54.3427 30.512 54.3471C30.3663 54.3526 30.1904 54.3438 30.1904 54.3438C30.1904 54.3438 30.6123 53.9487 30.8401 53.8166C31.0678 53.6856 31.2113 53.7263 31.2944 53.7891V53.7891Z" fill="#EF9720"/>
<path fill-rule="evenodd" clip-rule="evenodd" d="M16.7976 56.1564L19.1125 55.5874L19.1913 55.5676L19.1125 55.5874L19.8258 58.6019L16.9163 58.7659L16.4404 56.7541C16.3778 56.4888 16.5386 56.2203 16.7976 56.1564V56.1564ZM22.0554 54.8621L24.1922 54.3372C24.4523 54.2733 24.7156 54.4373 24.7782 54.7014L25.6232 58.274L22.7137 58.4391L21.8903 54.9612C21.9475 54.9293 22.0025 54.8963 22.0554 54.8621V54.8621Z" fill="#EF9720"/>
<path fill-rule="evenodd" clip-rule="evenodd" d="M19.1124 55.5874L19.1912 55.5676C18.7067 55.4763 17.4969 55.32 17.4699 54.6948C17.4375 53.92 18.1649 53.6273 18.7595 53.8188C19.3553 54.0092 19.9067 54.5716 20.1269 54.9656C20.1269 54.9656 20.3481 54.7521 20.5899 54.7521C20.8327 54.7521 20.8769 54.7521 20.8769 54.7521C20.8769 54.7521 21.2406 52.9867 22.023 52.9075C22.8065 52.8293 23.2468 53.2674 23.1702 53.5932C23.0979 53.898 22.6802 54.5154 21.8903 54.9612L22.7137 58.4391L19.8258 58.6019L19.1124 55.5874V55.5874ZM19.5376 55.0492C19.5376 55.0492 18.9031 54.2964 18.534 54.2964C18.1649 54.2964 18.0106 54.4483 18.0106 54.6673C18.0106 54.8863 18.7768 55.0041 19.5376 55.0492V55.0492ZM22.3263 53.4083C22.3263 53.4083 22.6241 53.4754 22.6079 53.6493C22.5907 53.8243 21.9302 54.3471 21.7748 54.4307C21.6205 54.5154 21.4284 54.6002 21.4284 54.6002C21.4284 54.6002 21.6766 53.9475 21.8525 53.6834C22.0284 53.4193 22.2054 53.3851 22.3263 53.4083Z" fill="#E41F29"/>
<path fill-rule="evenodd" clip-rule="evenodd" d="M43.7973 60.4085C47.9498 60.4085 51.3168 63.8572 51.3168 68.1123C51.3168 72.3658 47.9498 75.8146 43.7973 75.8146C39.6432 75.8146 36.2762 72.3658 36.2762 68.1123V56.1676C37.263 55.0666 38.4399 54.3886 39.8071 54.3236C39.8071 58.6928 39.8071 63.062 39.8071 67.4311C39.8071 70.6391 41.0304 73.3464 43.4447 73.3464C46.2672 73.3464 47.9282 71.0034 47.9282 68.1123C47.9282 65.2212 45.6393 62.8766 42.8167 62.8766C42.3095 62.8766 41.8176 62.9527 41.3552 63.0936C41.3552 63.0936 41.9971 61.3827 43.2235 60.4306C43.4122 60.4164 43.6039 60.4085 43.7973 60.4085ZM72.7416 60.4085C76.8941 60.4085 80.261 63.8572 80.261 68.1123C80.261 72.3658 76.8941 75.8146 72.7416 75.8146C68.5874 75.8146 65.2205 72.3658 65.2205 68.1123V56.1676C66.2072 55.0666 67.3857 54.3886 68.7514 54.3236C68.7514 58.6928 68.7514 63.062 68.7514 67.4311C68.7514 70.6391 69.9747 73.3464 72.3889 73.3464C75.2115 73.3464 76.8725 71.0034 76.8725 68.1123C76.8725 65.2212 74.5835 62.8766 71.761 62.8766C71.2537 62.8766 70.7635 62.9527 70.2995 63.0936C70.2995 63.0936 70.9429 61.3827 72.1678 60.4306C72.3565 60.4164 72.5482 60.4085 72.7416 60.4085ZM88.478 62.2208C89.4647 61.1198 90.6417 60.4417 92.0073 60.3752C92.0073 68.4022 92.0073 65.9436 92.0073 73.9706C91.0206 75.0716 89.8437 75.7496 88.478 75.8146C88.478 67.7876 88.478 70.2478 88.478 62.2208ZM90.2427 54.4361C91.2201 54.4361 92.012 55.2488 92.012 56.2484C92.012 57.2496 91.2201 58.0623 90.2427 58.0623C89.2652 58.0623 88.4734 57.2496 88.4734 56.2484C88.4734 55.2488 89.2652 54.4361 90.2427 54.4361ZM82.5995 51.7335C83.5862 50.6325 84.7647 49.9545 86.1303 49.8895C86.1303 57.9166 86.1303 65.9436 86.1303 73.9706C85.1436 75.0716 83.9667 75.7496 82.5995 75.8146C82.5995 67.7876 82.5995 59.7605 82.5995 51.7335ZM59.5322 62.2208C60.5205 61.1198 61.6974 60.4417 63.063 60.3752C63.063 68.4022 63.063 65.9436 63.063 73.9706C62.0763 75.0716 60.8994 75.7496 59.5322 75.8146C59.5322 67.7876 59.5322 70.2478 59.5322 62.2208ZM61.2984 54.4361C62.2758 54.4361 63.0677 55.2488 63.0677 56.2484C63.0677 57.2496 62.2758 58.0623 61.2984 58.0623C60.321 58.0623 59.5291 57.2496 59.5291 56.2484C59.5291 55.2488 60.321 54.4361 61.2984 54.4361ZM53.6552 51.7335C54.6419 50.6325 55.8204 49.9545 57.186 49.8895C57.186 57.9166 57.186 65.9436 57.186 73.9706C56.1993 75.0716 55.0224 75.7496 53.6552 75.8146C53.6552 67.7876 53.6552 59.7605 53.6552 51.7335Z" fill="#268ACB"/>
<path d="M245.116 56.0856H247.579V68.2137H251.798V70.6065H245.139L245.116 56.0856Z" fill="#000083"/>
<path d="M257.477 59.7217C258.777 59.6983 260.009 60.3082 260.807 61.3638V59.9329H263.088V70.63H260.807V69.199C260.009 70.2547 258.777 70.8646 257.477 70.8411C254.626 70.8411 252.46 68.331 252.46 65.2814C252.46 62.2318 254.626 59.7217 257.477 59.7217ZM257.911 61.8565C256.063 61.8565 254.832 63.3578 254.832 65.2814C254.832 67.205 256.086 68.7064 257.911 68.7064C259.735 68.7064 260.99 67.205 260.99 65.2814C260.99 63.3578 259.758 61.8565 257.911 61.8565Z" fill="#000083"/>
<path d="M264.89 68.7767L270.34 62.0675H264.958V59.9327H273.283V61.8094L267.854 68.4952H273.419V70.6299H264.89V68.7767Z" fill="#000083"/>
<path d="M279.235 59.7217C280.535 59.6983 281.767 60.3082 282.565 61.3638V59.9329H284.846V70.63H282.565V69.199C281.767 70.2547 280.535 70.8646 279.235 70.8411C276.384 70.8411 274.218 68.331 274.218 65.2814C274.218 62.2318 276.384 59.7217 279.235 59.7217ZM279.646 61.8565C277.798 61.8565 276.567 63.3578 276.567 65.2814C276.567 67.205 277.821 68.7064 279.646 68.7064C281.47 68.7064 282.725 67.205 282.725 65.2814C282.725 63.3578 281.493 61.8565 279.646 61.8565Z" fill="#000083"/>
<path d="M291.391 59.7217C292.691 59.6983 293.923 60.3082 294.721 61.3638V55.2177H297.002V70.63H294.721V69.199C293.923 70.2546 292.691 70.8646 291.391 70.8411C288.54 70.8411 286.374 68.331 286.374 65.2814C286.374 62.2318 288.54 59.7217 291.391 59.7217ZM291.802 61.8565C289.954 61.8565 288.723 63.3578 288.723 65.2814C288.723 67.205 289.977 68.7064 291.802 68.7064C293.626 68.7064 294.881 67.205 294.881 65.2814C294.881 63.3578 293.649 61.8565 291.802 61.8565Z" fill="#000083"/>
<path d="M303.525 59.7217C304.825 59.6983 306.056 60.3082 306.854 61.3638V59.9329H309.135V70.63H306.832V69.199C306.033 70.2547 304.802 70.8646 303.502 70.8411C300.651 70.8411 298.484 68.331 298.484 65.2814C298.507 62.2318 300.674 59.7217 303.525 59.7217ZM303.958 61.8565C302.111 61.8565 300.879 63.3578 300.879 65.2814C300.879 67.205 302.133 68.7064 303.958 68.7064C305.783 68.7064 307.037 67.205 307.037 65.2814C307.037 63.3578 305.805 61.8565 303.958 61.8565Z" fill="#000083"/>
<path d="M218.199 80.2281C217.952 80.2281 217.704 80.1644 217.518 80.037C215.69 78.9537 202.216 70.2559 201.721 70.0011C201.349 69.8099 201.07 69.4276 201.039 69.0134V56.811C201.039 56.3649 201.256 55.9189 201.628 55.664L201.721 55.6003C203.022 54.7719 207.389 52.032 208.071 51.6497C208.225 51.5541 208.411 51.4904 208.597 51.4904C208.783 51.4904 208.938 51.5222 209.093 51.6178C209.093 51.6178 215.195 55.6959 216.124 56.0782C216.775 56.3968 217.487 56.5561 218.199 56.5242C219.005 56.5561 219.81 56.3331 220.553 55.9508C221.452 55.441 227.306 51.6497 227.368 51.6497C227.523 51.5541 227.678 51.5222 227.864 51.5222C228.049 51.5222 228.235 51.5859 228.39 51.6815C229.196 52.1276 234.585 55.5366 234.833 55.6959C235.205 55.9189 235.453 56.3649 235.453 56.811V68.9815C235.422 69.4276 235.143 69.8099 234.771 69.9692C234.275 70.2559 220.832 78.9537 218.974 80.0051C218.695 80.1644 218.447 80.2281 218.199 80.2281Z" fill="url(#paint0_linear_10_716)"/>
<path d="M218.138 80.2282H218.199C218.447 80.2282 218.695 80.1645 218.881 80.037C220.708 78.9538 234.152 70.256 234.678 70.0011C235.081 69.8099 235.329 69.4276 235.36 69.0134V56.811C235.36 56.6199 235.329 56.3968 235.236 56.2057L218.107 65.8593V80.2282" fill="url(#paint1_linear_10_716)"/>
<path d="M218.066 80.0453H218.005C217.759 80.0453 217.514 79.9822 217.33 79.8561C215.522 78.7844 202.222 70.1793 201.701 69.9271C201.303 69.738 201.058 69.3597 201.027 68.95V56.9091C201.027 56.7199 201.058 56.4993 201.15 56.3102L218.096 65.8609V80.0453" fill="url(#paint2_linear_10_716)"/>
<path d="M426.338 69.2035C426.604 66.8771 425.181 65.3895 421.424 64.1256C419.599 63.4657 418.749 62.6156 418.771 61.43C418.845 60.1214 420.002 59.1706 421.541 59.1371C422.602 59.1595 423.78 59.4279 424.937 60.2444C425.075 60.3339 425.171 60.3227 425.245 60.1997C425.351 60.0207 425.617 59.5845 425.702 59.4279C425.765 59.3272 425.776 59.193 425.617 59.0812C425.394 58.9134 424.789 58.5667 424.46 58.4212C423.568 58.0298 422.57 57.7837 421.498 57.7837C419.248 57.7949 417.486 59.2937 417.338 61.2846C417.242 62.7274 417.922 63.9019 419.376 64.7855C419.683 64.9756 421.35 65.6691 422.018 65.8928C424.109 66.5751 425.192 67.8054 424.937 69.2371C424.704 70.5345 423.409 71.3734 421.626 71.3958C420.204 71.3398 418.93 70.7247 417.943 69.9194C417.922 69.897 417.794 69.7963 417.773 69.7851C417.646 69.6845 417.518 69.6957 417.433 69.8187C417.37 69.9194 416.988 70.501 416.892 70.6464C416.796 70.7806 416.85 70.8589 416.945 70.9372C417.359 71.2951 417.911 71.6978 418.282 71.8991C419.312 72.4471 420.426 72.7491 421.615 72.8051C422.379 72.861 423.335 72.682 424.056 72.3689C425.341 71.7984 426.179 70.6464 426.338 69.2035ZM421.7 48.668C419.27 48.668 417.285 51.0839 417.189 54.115H426.211C426.115 51.0839 424.141 48.668 421.7 48.668ZM430.945 76.6862H430.849H412.275C411.012 76.6415 410.078 75.5566 409.961 74.2144L409.951 73.9683L409.112 54.7302C409.112 54.719 409.112 54.6967 409.112 54.6855C409.112 54.3723 409.346 54.1262 409.643 54.115H415.502C415.64 50.122 418.367 46.9343 421.7 46.9343C425.033 46.9343 427.761 50.122 427.909 54.115H433.747H433.757C434.055 54.115 434.299 54.3723 434.299 54.6855C434.299 54.6967 434.299 54.7079 434.299 54.719L433.386 74.0466L433.375 74.2144C433.269 75.5566 432.229 76.6527 430.945 76.6862ZM444.329 63.8683C448.33 65.1322 449.901 66.7093 449.646 69.2371C449.487 70.803 448.606 72.0669 447.216 72.7156C446.452 73.0735 445.422 73.2748 444.605 73.2301C443.342 73.2077 442.153 72.9057 441.06 72.3353C440.667 72.134 440.073 71.7313 439.616 71.3398C439.404 71.1497 439.383 71.0267 439.521 70.803C439.563 70.7359 439.627 70.6352 439.786 70.3779C439.924 70.1654 440.062 69.9417 440.062 69.9305C440.232 69.6621 440.412 69.6621 440.667 69.8411C440.667 69.8411 440.688 69.8634 440.752 69.9082C440.805 69.9529 440.837 69.9753 440.837 69.9753C441.973 70.8701 443.278 71.3734 444.584 71.3958C446.367 71.3398 447.63 70.4898 447.831 69.2371C448.054 67.8613 446.972 66.6757 444.859 66.027C444.117 65.8033 442.514 65.1658 442.057 64.9085C440.476 63.9802 439.712 62.7163 439.797 61.1392C439.924 58.9581 441.813 57.3028 444.233 57.2468C445.295 57.2245 446.367 57.437 447.386 57.862C447.757 58.0186 448.405 58.3653 448.638 58.5443C448.914 58.7456 448.914 58.891 448.776 59.1483C448.755 59.1818 448.691 59.2937 448.5 59.5621C448.309 59.8529 448.245 59.9424 448.235 59.9648C448.075 60.1773 447.948 60.2444 447.672 60.0766C446.6 59.3608 445.518 59.014 444.297 59.014C442.79 59.07 441.675 60.0207 441.622 61.2622C441.643 62.4255 442.493 63.242 444.329 63.8683ZM455.548 63.2308C457.989 63.2308 460.005 65.3112 460.016 67.8501V72.8163C460.016 73.1071 459.942 73.1742 459.676 73.1742H458.551C458.286 73.1742 458.212 73.1071 458.212 72.8163V67.8613C458.201 66.329 457.012 65.0875 455.548 65.0875C454.083 65.0875 452.894 66.3178 452.884 67.8501V72.8163C452.884 73.0623 452.788 73.1742 452.544 73.1742H451.419C451.154 73.1742 451.079 73.0735 451.079 72.8163V57.6159C451.079 57.3587 451.154 57.258 451.419 57.258H452.544C452.788 57.258 452.884 57.3587 452.884 57.6159V64.1591C453.648 63.5663 454.582 63.2308 455.548 63.2308ZM466.268 71.3846C467.955 71.3846 469.324 69.9753 469.324 68.2304C469.324 66.4856 467.955 65.0763 466.268 65.0763C464.58 65.0763 463.211 66.4856 463.211 68.2304C463.211 69.9753 464.58 71.3846 466.268 71.3846ZM466.268 63.242C468.932 63.242 471.097 65.4789 471.097 68.2304C471.097 70.9819 468.932 73.2189 466.268 73.2189C463.604 73.2189 461.438 70.9819 461.438 68.2304C461.438 65.4789 463.604 63.242 466.268 63.242ZM496.103 67.0784H501.453C501.07 65.9263 499.945 65.0651 498.757 65.0651C497.515 65.0651 496.453 65.8704 496.103 67.0784ZM502.779 68.9015C502.769 68.9015 502.758 68.9015 502.758 68.9015H495.997C496.167 69.8187 496.761 70.6016 497.589 71.0378C497.801 71.1497 498.035 71.2392 498.279 71.3063C499.489 71.5747 500.879 71.3734 501.93 70.3891C501.941 70.3668 501.973 70.3556 502.004 70.322C502.185 70.1542 502.302 70.199 502.45 70.3779C502.45 70.3779 502.652 70.6687 503.002 71.2615C503.151 71.5076 503.14 71.6306 502.885 71.9103C502.875 71.9215 502.854 71.9438 502.822 71.9662C502.769 72.0109 502.716 72.0557 502.652 72.1116C502.461 72.2682 502.227 72.4136 501.962 72.559C500.975 73.0847 499.754 73.3308 498.3 73.1518C498.247 73.1406 498.215 73.1406 498.173 73.1294L498.088 73.1182C497.027 72.9057 496.071 72.3577 495.371 71.5412C495.371 71.5412 495.371 71.5412 495.371 71.53C494.745 70.803 494.341 69.8858 494.214 68.8903L494.203 68.8232C494.182 68.6219 494.171 68.4206 494.171 68.2081C494.171 65.4566 496.22 63.2196 498.746 63.2196C501.272 63.2196 503.321 65.4566 503.321 68.2081C503.321 68.2304 503.321 68.2416 503.321 68.2416C503.321 68.2528 503.321 68.264 503.321 68.2864C503.321 68.6107 503.087 68.868 502.79 68.8903C502.8 68.9015 502.79 68.9015 502.779 68.9015ZM477.327 71.3622C478.983 71.3622 480.331 69.9529 480.331 68.2081C480.331 66.4632 478.983 65.0539 477.327 65.0539C475.693 65.0539 474.366 66.4185 474.324 68.1298V68.2975C474.366 69.9976 475.703 71.3622 477.327 71.3622ZM477.327 63.2196C479.949 63.2196 482.072 65.4566 482.072 68.2081C482.072 70.9596 479.949 73.1965 477.327 73.1965C476.213 73.1965 475.162 72.7939 474.324 72.0669V77.9278C474.324 78.1962 474.249 78.2857 473.984 78.2857H472.912C472.647 78.2857 472.572 78.1962 472.572 77.9278V63.5775C472.572 63.2979 472.647 63.2196 472.912 63.2196H473.984C474.249 63.2196 474.324 63.3091 474.324 63.5775V64.3493C475.173 63.6222 476.223 63.2196 477.327 63.2196ZM485.511 67.0784H490.86C490.478 65.9263 489.353 65.0651 488.164 65.0651C486.922 65.0651 485.861 65.8704 485.511 67.0784ZM492.739 68.2304C492.739 68.2528 492.739 68.264 492.739 68.264C492.739 68.2752 492.739 68.2864 492.739 68.3087C492.739 68.6331 492.505 68.8903 492.208 68.9127C492.197 68.9127 492.187 68.9127 492.187 68.9127C492.176 68.9127 492.165 68.9127 492.165 68.9127H485.404C485.574 69.8299 486.169 70.6128 486.996 71.049C487.209 71.1609 487.442 71.2504 487.686 71.3175C488.896 71.5859 490.287 71.3846 491.338 70.4003C491.348 70.3779 491.38 70.3668 491.412 70.3332C491.592 70.1654 491.709 70.2102 491.858 70.3891C491.858 70.3891 492.059 70.6799 492.41 71.2727C492.558 71.5188 492.548 71.6418 492.293 71.9215C492.282 71.9326 492.261 71.955 492.229 71.9774C492.176 72.0221 492.123 72.0669 492.059 72.1228C491.868 72.2794 491.635 72.4248 491.369 72.5702C490.382 73.0959 489.162 73.3419 487.708 73.163C487.655 73.1518 487.623 73.1518 487.58 73.1406L487.495 73.1294C486.434 72.9169 485.479 72.3689 484.778 71.5524C484.778 71.5524 484.778 71.5524 484.778 71.5412C484.152 70.8141 483.749 69.897 483.621 68.9015L483.611 68.8344C483.589 68.6331 483.579 68.4318 483.579 68.2192C483.579 65.4678 485.627 63.2308 488.153 63.2308C490.679 63.242 492.739 65.4678 492.739 68.2304Z" fill="#EE4D2D"/>
<path fill-rule="evenodd" clip-rule="evenodd" d="M639.697 62.4544C639.15 61.8674 638.433 61.5552 637.581 61.5552C635.745 61.5552 634.626 62.954 634.626 64.7773C634.626 66.5757 635.745 67.9995 637.581 67.9995C639.393 67.9995 640.536 66.6007 640.536 64.7773C640.512 63.8282 640.244 63.0539 639.697 62.4544ZM697.264 59.7194H699.259V69.673H699.113C698.091 69.673 697.24 68.7988 697.24 67.7497V59.7194H697.264ZM680.349 69.8478C679.085 70.1226 677.808 69.9103 676.58 69.1984C675.376 68.5115 674.585 67.4874 674.196 66.1636C673.381 63.441 675.047 60.3938 677.723 59.6819C679.048 59.3072 680.313 59.4946 681.529 60.1814C683.523 61.3304 684.277 63.0913 684.119 65.3893L676.057 65.3643C676.178 66.2885 676.75 67.0378 677.54 67.4749C678.355 67.937 679.085 68.0369 679.778 67.8121C680.532 67.5624 681.164 66.9129 681.651 66.326L683.28 67.5624C682.623 68.8237 681.711 69.5731 680.349 69.8478ZM681.894 63.491C681.651 62.6792 681.322 62.2796 680.593 61.8799C678.878 60.8933 677.151 61.7301 676.361 63.491H681.894ZM709.303 64.0905C709.303 63.2787 708.999 62.6293 708.403 62.1422C707.856 61.7051 707.199 61.4928 706.348 61.4928C704.536 61.4928 703.357 62.954 703.357 64.7524C703.357 66.4883 704.597 67.9121 706.312 67.9121C707.516 67.9121 708.148 67.2002 708.853 66.301V68.8612C708.488 69.136 708.099 69.4232 707.71 69.6105C707.285 69.7979 706.774 69.8853 706.166 69.8853C703.272 69.8853 701.362 67.4375 701.362 64.5775C701.362 63.1163 701.812 61.9049 702.688 60.9807C703.624 59.9941 704.865 59.4946 706.373 59.4946C709.242 59.4946 711.297 61.1681 711.297 64.2403V69.6605H711.152C710.13 69.6605 709.279 68.7863 709.279 67.7372V64.0905H709.303ZM699.137 58.5329C698.93 58.7827 698.626 58.8701 698.262 58.8701C697.568 58.8701 697.082 58.3456 697.082 57.6587C697.082 56.9468 697.568 56.4473 698.262 56.4473C698.93 56.4473 699.441 56.9468 699.441 57.6587C699.429 58.0084 699.344 58.3206 699.137 58.5329ZM693.483 68.3617C692.583 69.3857 691.367 69.8853 689.956 69.8853C688.448 69.8853 687.208 69.3608 686.271 68.2742C685.396 67.2501 684.946 65.9763 684.946 64.4651C684.946 61.7675 686.965 59.532 689.628 59.532C690.649 59.532 691.561 59.7443 692.437 60.2814V62.5169C691.707 62.0173 690.807 61.5302 689.895 61.5302C688.023 61.5302 686.904 62.8665 686.904 64.7274C686.904 66.5882 688.083 67.9495 689.92 67.9495C690.771 67.9495 691.427 67.6373 691.999 66.9879C692.546 66.3385 692.814 65.4018 692.814 64.1404V57.1966C692.814 56.1475 693.665 55.2733 694.686 55.2733H694.832V64.4526C694.845 66.0387 694.395 67.3376 693.483 68.3617ZM671.776 68.4616C670.84 69.4232 669.758 69.9228 668.457 69.9228C667.435 69.9228 666.56 69.7104 665.647 69.1734V66.9629C666.377 67.4625 667.277 67.9495 668.189 67.9495C670.062 67.9495 671.18 66.6132 671.18 64.7524C671.18 62.8915 670.037 61.5302 668.165 61.5302C667.313 61.5302 666.657 61.8425 666.11 62.4544C665.538 63.1413 665.258 64.0655 665.258 65.3393V74.0566H665.112C664.091 74.0566 663.24 73.1824 663.24 72.1333V65.0146C663.24 62.0048 665.052 59.557 668.128 59.557C669.673 59.557 670.901 60.0815 671.837 61.1681C672.713 62.1547 673.163 63.466 673.163 64.9772C673.163 66.3135 672.713 67.4999 671.776 68.4616ZM659.409 62.4544C658.862 61.8674 658.145 61.5552 657.293 61.5552C655.457 61.5552 654.338 62.954 654.338 64.7773C654.338 66.5757 655.457 67.9995 657.293 67.9995C659.105 67.9995 660.248 66.6007 660.248 64.7773C660.224 63.8282 659.956 63.0539 659.409 62.4544ZM660.832 68.499C659.835 69.4607 658.655 69.9602 657.269 69.9602C655.907 69.9602 654.703 69.4607 653.742 68.499C652.745 67.5124 652.259 66.2635 652.259 64.7773C652.259 61.8674 654.436 59.5945 657.305 59.5945C658.667 59.5945 659.871 60.094 660.868 61.0806C661.866 62.0673 662.376 63.3161 662.376 64.8023C662.34 66.276 661.829 67.5124 660.832 68.499ZM650.508 62.2171C650.204 62.7167 649.997 63.0913 649.815 63.3037C649.632 63.5534 649.45 63.7408 649.304 63.8657C650.69 64.3277 651.201 65.3269 651.201 66.7756V69.7479H651.055C650.034 69.7479 649.182 68.8737 649.182 67.8246V66.9504C649.182 65.9888 648.757 65.3393 647.796 65.3393H645.984V69.7479H645.838C644.817 69.7479 643.966 68.8737 643.966 67.8246V57.2466C643.966 56.1975 644.817 55.3233 645.838 55.3233H645.984V63.3911H646.592C647.261 63.3911 647.674 63.1788 647.918 62.7417L649.608 59.8318H651.906L650.508 62.2171ZM641.144 68.499C640.147 69.4607 638.968 69.9602 637.581 69.9602C636.219 69.9602 635.016 69.4607 634.055 68.499C633.058 67.5124 632.571 66.2635 632.571 64.7773C632.571 61.8674 634.748 59.5945 637.618 59.5945C638.98 59.5945 640.184 60.094 641.181 61.0806C642.178 62.0673 642.689 63.3161 642.689 64.8023C642.628 66.276 642.142 67.5124 641.144 68.499ZM629.495 69.7729C627.525 69.7729 626.564 68.4116 626.564 66.4883V59.2323C626.564 58.1832 627.415 57.309 628.437 57.309H628.583V59.7943H631.963V61.78H628.583V66.7131C628.583 67.5499 628.948 67.7997 629.726 67.7997H631.963V69.7854L629.495 69.7729Z" fill="#42B549"/>
<path fill-rule="evenodd" clip-rule="evenodd" d="M617.895 55.3022H620.095H622.152H622.215H622.912V56.0259V56.0917V58.4435V67.4342C622.912 69.2542 622.194 70.9099 621.039 72.1104C619.884 73.311 618.291 74.0566 616.54 74.0566H613.053H603.886H603.189V73.333V56.6015V56.3603V56.0917V56.0259V55.3022H603.886H603.949H604.761H608.206C608.343 54.1565 608.849 53.1313 609.598 52.3583C610.484 51.4428 611.703 50.8727 613.053 50.8727C614.404 50.8727 615.622 51.4428 616.508 52.3583C617.252 53.1368 617.758 54.162 617.895 55.3022ZM609.445 55.3461C610.02 55.3954 610.563 55.4941 611.086 55.6312C611.793 55.8176 612.452 56.0807 613.048 56.4041C613.644 56.0807 614.303 55.8176 615.01 55.6312C615.532 55.4941 616.076 55.3954 616.651 55.3461C616.524 54.5402 616.16 53.8166 615.627 53.2684C614.968 52.5831 614.055 52.1555 613.048 52.1555C612.04 52.1555 611.128 52.5776 610.469 53.2684C609.941 53.8166 609.572 54.5402 609.445 55.3461Z" fill="#7D8587"/>
<path fill-rule="evenodd" clip-rule="evenodd" d="M617.595 56.0259H622.158C622.194 56.0259 622.221 56.0588 622.221 56.0917V67.4287C622.221 70.6741 619.668 73.3275 616.545 73.3275H613.053V57.2265C614.277 56.4864 615.822 56.0259 617.595 56.0259Z" fill="#4F9D4E"/>
<path fill-rule="evenodd" clip-rule="evenodd" d="M608.506 56.0259H603.949C603.912 56.0259 603.886 56.0588 603.886 56.0917C603.886 61.8369 603.886 67.5822 603.886 73.333C606.94 73.333 609.999 73.333 613.053 73.333V57.2265C611.824 56.4864 610.279 56.0259 608.506 56.0259Z" fill="#60BB55"/>
<path fill-rule="evenodd" clip-rule="evenodd" d="M620.169 71.9624C619.183 72.8176 617.917 73.3329 616.545 73.3329H613.053V67.0887C616.208 67.1052 618.919 69.0952 620.169 71.9624Z" fill="#60BB55"/>
<path fill-rule="evenodd" clip-rule="evenodd" d="M605.399 73.3329H613.053V67.0887C613.043 67.0887 613.027 67.0887 613.016 67.0887C609.366 67.0887 606.296 69.7366 605.399 73.3329Z" fill="#84C567"/>
<path fill-rule="evenodd" clip-rule="evenodd" d="M608.775 58.3229C610.057 58.3229 611.218 58.8601 612.056 59.7373C612.478 60.1758 612.821 60.6966 613.053 61.2777C613.291 60.6966 613.628 60.1758 614.05 59.7373C614.889 58.8656 616.049 58.3229 617.331 58.3229C618.613 58.3229 619.773 58.8601 620.612 59.7373C621.451 60.6089 621.973 61.815 621.973 63.1471C621.973 64.4793 621.456 65.6854 620.612 66.557C619.773 67.4287 618.613 67.9714 617.331 67.9714C616.661 67.9714 616.028 67.8234 615.453 67.5603L615.226 67.796L613.396 69.6983L613.016 70.093L612.637 69.6983L610.806 67.796L610.6 67.5822C610.041 67.8289 609.424 67.9714 608.775 67.9714C607.494 67.9714 606.333 67.4342 605.494 66.557C604.656 65.6854 604.134 64.4793 604.134 63.1471C604.134 61.815 604.65 60.6089 605.494 59.7373C606.333 58.8601 607.494 58.3229 608.775 58.3229ZM613.597 66.0033C613.38 65.6963 613.196 65.3619 613.053 65.0111C612.911 65.3619 612.731 65.6854 612.52 65.9869C612.684 65.9595 612.847 65.943 613.016 65.943C613.211 65.943 613.407 65.965 613.597 66.0033Z" fill="#7D8587"/>
<path d="M617.331 67.2423C619.51 67.2423 621.277 65.4064 621.277 63.1416C621.277 60.8769 619.51 59.041 617.331 59.041C615.152 59.041 613.385 60.8769 613.385 63.1416C613.385 65.4064 615.152 67.2423 617.331 67.2423Z" fill="white"/>
<path d="M608.775 67.2423C610.954 67.2423 612.721 65.4064 612.721 63.1416C612.721 60.8769 610.954 59.041 608.775 59.041C606.596 59.041 604.83 60.8769 604.83 63.1416C604.83 65.4064 606.596 67.2423 608.775 67.2423Z" fill="white"/>
<path fill-rule="evenodd" clip-rule="evenodd" d="M609.208 60.5541C610.585 60.5541 611.703 61.7163 611.703 63.1471C611.703 64.578 610.585 65.7402 609.208 65.7402C607.831 65.7402 606.713 64.578 606.713 63.1471C606.713 62.6757 606.834 62.2371 607.045 61.8588C607.209 62.3632 607.662 62.725 608.2 62.725C608.876 62.725 609.424 62.1549 609.424 61.4531C609.424 61.1078 609.292 60.7898 609.071 60.5596C609.118 60.5541 609.16 60.5541 609.208 60.5541Z" fill="#7D8587"/>
<path fill-rule="evenodd" clip-rule="evenodd" d="M616.809 60.5541C618.186 60.5541 619.304 61.7163 619.304 63.1471C619.304 64.578 618.186 65.7402 616.809 65.7402C615.432 65.7402 614.314 64.578 614.314 63.1471C614.314 62.6757 614.435 62.2371 614.646 61.8588C614.81 62.3632 615.263 62.725 615.801 62.725C616.477 62.725 617.025 62.1549 617.025 61.4531C617.025 61.1078 616.893 60.7898 616.672 60.5596C616.719 60.5541 616.767 60.5541 616.809 60.5541Z" fill="#7D8587"/>
<path fill-rule="evenodd" clip-rule="evenodd" d="M613.016 66.5022C613.739 66.5022 614.388 66.8421 614.847 67.3903L613.016 69.2926V66.5022Z" fill="#FFC868"/>
<path fill-rule="evenodd" clip-rule="evenodd" d="M613.016 69.2981L611.186 67.3958C611.645 66.8476 612.299 66.5077 613.016 66.5077V69.2981Z" fill="#FCF5AE"/>
<path d="M905.782 72.8167C909.889 72.8167 913.221 69.7727 913.221 66.0379C913.221 62.2815 909.889 59.259 905.782 59.259H904.656C908.763 59.259 912.095 62.303 912.095 66.0379C912.095 69.7727 908.763 72.8167 904.656 72.8167H905.782V72.8167Z" fill="#FF004F"/>
<path d="M904.562 59.259H903.436C899.329 59.259 895.997 62.303 895.997 66.0379C895.997 69.7727 899.329 72.8167 903.436 72.8167H904.562C900.456 72.8167 897.123 69.7727 897.123 66.0379C897.123 62.303 900.456 59.259 904.562 59.259Z" fill="#00F2EA"/>
<path d="M848.031 56.193V59.6256H852.42V72.7299H856.808V59.7119H860.375L861.595 56.1714L848.031 56.193ZM883.888 56.193V59.6256H888.277V72.7299H892.665V59.7119H896.232L897.452 56.1714L883.888 56.193ZM862.393 58.136C862.393 57.0565 863.355 56.193 864.528 56.193C865.702 56.193 866.664 57.0565 866.664 58.136C866.664 59.2154 865.702 60.0789 864.528 60.0789C863.355 60.1005 862.393 59.2154 862.393 58.136ZM862.393 61.4822H866.664V72.7299H862.393V61.4822ZM868.494 56.193V72.7299H872.765V68.4554L874.079 67.3327L878.256 72.8163H882.832L876.825 64.8285L882.222 59.9926H877.036L872.765 63.9001V56.193H868.494ZM914.63 56.193V72.7299H918.9V68.4554L920.215 67.3327L924.392 72.8163H928.991L922.984 64.8285L928.381 59.9926H923.195L918.9 63.9001V56.193H914.63Z" fill="#333939"/>
<path d="M904.656 72.8167C908.763 72.8167 912.095 69.7727 912.095 66.0379C912.095 62.2815 908.763 59.259 904.656 59.259H904.562C900.456 59.259 897.123 62.303 897.123 66.0379C897.123 69.7727 900.456 72.8167 904.562 72.8167H904.656V72.8167ZM900.995 66.0379C900.995 64.2244 902.615 62.7348 904.609 62.7348C906.604 62.7348 908.223 64.2028 908.223 66.0379C908.223 67.8729 906.604 69.341 904.609 69.341C902.615 69.341 900.995 67.8513 900.995 66.0379Z" fill="#333939"/>
<path d="M834.092 58.3091C836.298 59.7555 838.996 60.6191 841.93 60.6191V55.4378C841.367 55.4378 840.827 55.3946 840.287 55.2867V59.3453C837.377 59.3453 834.655 58.4818 832.449 57.0353V67.5922C832.449 72.8599 827.803 77.1344 822.054 77.1344C819.918 77.1344 817.923 76.5299 816.281 75.5153C818.158 77.2855 820.786 78.3866 823.72 78.3866C829.469 78.3866 834.115 74.112 834.115 68.8444L834.092 58.3091ZM836.11 53.0846C834.984 51.962 834.233 50.494 834.092 48.8748V48.2056H832.543C832.919 50.2781 834.256 52.0268 836.11 53.0846ZM819.895 71.4782C819.261 70.7226 818.932 69.7943 818.932 68.8228C818.932 66.4048 821.068 64.4619 823.696 64.4619C824.189 64.4619 824.682 64.5266 825.128 64.6561V59.3885C824.588 59.3237 824.025 59.2806 823.485 59.3022V63.404C823.016 63.2745 822.523 63.2097 822.054 63.2097C819.402 63.2097 817.29 65.1743 817.29 67.5706C817.29 69.2761 818.346 70.7657 819.895 71.4782Z" fill="#FF004F"/>
<path d="M832.426 57.0569C834.632 58.5034 837.33 59.3669 840.264 59.3669V55.2867C838.644 54.9628 837.189 54.1856 836.11 53.0846C834.256 52.0268 832.919 50.2565 832.52 48.2056H828.436V68.8444C828.436 71.2407 826.301 73.2053 823.673 73.2053C822.124 73.2053 820.763 72.536 819.895 71.4782C818.346 70.7657 817.29 69.2761 817.29 67.5706C817.29 65.1527 819.425 63.2097 822.053 63.2097C822.546 63.2097 823.039 63.2745 823.485 63.404V59.3022C817.829 59.4101 813.3 63.6415 813.3 68.8444C813.3 71.435 814.427 73.8098 816.257 75.5153C817.9 76.5299 819.895 77.1344 822.03 77.1344C827.756 77.1344 832.426 72.8599 832.426 67.5922V57.0569Z" fill="#333939"/>
<path d="M840.264 55.2862V54.1852C838.785 54.1852 837.354 53.8182 836.11 53.0842C837.213 54.2068 838.668 54.9624 840.264 55.2862ZM832.52 48.2051C832.473 48.0108 832.449 47.8166 832.426 47.6223V46.953H826.794V67.5918C826.794 69.9881 824.658 71.9527 822.03 71.9527C821.256 71.9527 820.528 71.78 819.895 71.4778C820.763 72.5356 822.124 73.2049 823.673 73.2049C826.301 73.2049 828.413 71.2619 828.436 68.8439V48.2051H832.52ZM823.462 59.3017V58.1359C822.992 58.0712 822.523 58.0496 822.03 58.0496C816.304 58.0496 811.658 62.3242 811.658 67.5918C811.658 70.8949 813.488 73.8093 816.257 75.5364C814.427 73.8093 813.301 71.4562 813.301 68.8655C813.301 63.6411 817.83 59.4097 823.462 59.3017Z" fill="#00F2EA"/>
<path d="M1067.35 64.1709C1066.43 63.648 1065.92 63.2296 1065.92 62.602C1065.92 61.8176 1066.58 61.3469 1067.66 61.3469C1068.89 61.3469 1069.97 61.8699 1069.97 61.8699L1070.85 59.1505C1070.85 59.1505 1070.08 58.5229 1067.71 58.5229C1064.48 58.5229 1062.22 60.4056 1062.22 63.0727C1062.22 64.5893 1063.3 65.7398 1064.68 66.5766C1065.81 67.2564 1066.22 67.7271 1066.22 68.4069C1066.22 69.1391 1065.66 69.7143 1064.58 69.7143C1062.99 69.7143 1061.55 68.8776 1061.55 68.8776L1060.63 71.5447C1060.63 71.5447 1062.01 72.486 1064.32 72.486C1067.66 72.486 1070.08 70.8125 1070.08 67.7794C1070.02 66.1582 1068.84 65.0077 1067.35 64.1709Z" fill="#333939"/>
<path d="M1080.71 58.4706C1079.06 58.4706 1077.78 59.2551 1076.75 60.4579L1076.7 60.4056L1078.14 52.8226H1074.39L1070.79 72.2245H1074.54L1075.78 65.5829C1076.24 63.0727 1077.52 61.5561 1078.7 61.5561C1079.52 61.5561 1079.88 62.1313 1079.88 62.9681C1079.88 63.491 1079.83 64.1186 1079.73 64.6416L1078.34 72.2245H1082.09L1083.53 64.3801C1083.68 63.5433 1083.79 62.5497 1083.79 61.9222C1083.79 59.778 1082.66 58.4706 1080.71 58.4706Z" fill="#333939"/>
<path d="M1092.21 58.4707C1087.74 58.4707 1084.76 62.6021 1084.76 67.2042C1084.76 70.1327 1086.56 72.4861 1089.9 72.4861C1094.31 72.4861 1097.29 68.4593 1097.29 63.7526C1097.24 61.0855 1095.65 58.4707 1092.21 58.4707ZM1090.36 69.6098C1089.08 69.6098 1088.56 68.5116 1088.56 67.1519C1088.56 64.9554 1089.69 61.4516 1091.7 61.4516C1093.03 61.4516 1093.44 62.6021 1093.44 63.7526C1093.44 66.0013 1092.31 69.6098 1090.36 69.6098Z" fill="#333939"/>
<path d="M1106.79 58.4707C1104.28 58.4707 1102.84 60.7194 1102.84 60.7194H1102.79L1102.99 58.6799H1099.71C1099.55 60.0396 1099.24 62.1314 1098.94 63.7003L1096.37 77.6111H1100.12L1101.14 72.0154H1101.25C1101.25 72.0154 1102.02 72.4861 1103.46 72.4861C1107.82 72.4861 1110.7 67.9363 1110.7 63.2819C1110.59 60.7717 1109.51 58.4707 1106.79 58.4707ZM1103.2 69.6621C1102.22 69.6621 1101.66 69.0868 1101.66 69.0868L1102.27 65.5307C1102.68 63.1774 1103.92 61.6085 1105.2 61.6085C1106.33 61.6085 1106.69 62.7067 1106.69 63.7003C1106.74 66.1582 1105.3 69.6621 1103.2 69.6621Z" fill="#333939"/>
<path d="M1115.93 53.0319C1114.75 53.0319 1113.78 53.9732 1113.78 55.2283C1113.78 56.3788 1114.5 57.111 1115.52 57.111H1115.57C1116.76 57.111 1117.73 56.3265 1117.78 54.9145C1117.78 53.8163 1117.06 53.0319 1115.93 53.0319Z" fill="#333939"/>
<path d="M1110.7 72.2245H1114.44L1116.96 58.7844H1113.21L1110.7 72.2245Z" fill="#333939"/>
<path d="M1126.46 58.7845H1123.89L1124.05 58.1569C1124.25 56.8495 1125.02 55.699 1126.26 55.699C1126.92 55.699 1127.44 55.9082 1127.44 55.9082L1128.16 52.9273C1128.16 52.9273 1127.49 52.6135 1126.15 52.6135C1124.82 52.6135 1123.48 52.9796 1122.51 53.8686C1121.22 54.9669 1120.66 56.588 1120.35 58.1569L1120.25 58.7845H1118.5L1117.94 61.6608H1119.68L1117.68 72.2246H1121.43L1123.38 61.6085H1125.95L1126.46 58.7845Z" fill="#333939"/>
<path d="M1135.45 58.7844C1135.45 58.7844 1133.14 64.7462 1132.06 68.0408H1132.01C1131.96 66.9949 1131.08 58.7844 1131.08 58.7844H1127.18L1129.44 71.1263C1129.49 71.3878 1129.49 71.5447 1129.34 71.7539C1128.93 72.5906 1128.16 73.4273 1127.33 74.0549C1126.62 74.5779 1125.85 74.8916 1125.23 75.1531L1126.26 78.3955C1127.03 78.2386 1128.57 77.611 1129.9 76.3559C1131.6 74.7347 1133.19 72.2245 1134.78 68.8253L1139.35 58.889L1135.45 58.7844Z" fill="#333939"/>
<path d="M1053.18 52.509C1053.18 52.3521 1053.03 52.2475 1052.92 52.2475C1052.82 52.2475 1050.61 52.1952 1050.61 52.1952C1050.61 52.1952 1048.76 50.3648 1048.61 50.2079C1048.4 49.9988 1048.1 50.1034 1047.94 50.1034C1047.94 50.1034 1047.58 50.2079 1047.02 50.4171C1046.91 50.1034 1046.76 49.685 1046.56 49.3189C1045.89 48.0638 1044.96 47.384 1043.78 47.384C1043.68 47.384 1043.63 47.384 1043.53 47.384C1043.47 47.3317 1043.47 47.2794 1043.42 47.2794C1042.91 46.7564 1042.29 46.4426 1041.52 46.4949C1040.03 46.5472 1038.54 47.6454 1037.36 49.5804C1036.49 50.9401 1035.87 52.6659 1035.67 54.0256C1033.97 54.5485 1032.74 54.9669 1032.74 54.9669C1031.87 55.2284 1031.87 55.2807 1031.71 56.1174C1031.61 56.6404 1029.35 74.4734 1029.35 74.4734L1048.3 77.8203L1056.52 75.7285C1056.52 75.7285 1053.18 52.6659 1053.18 52.509ZM1046.04 50.6786C1045.58 50.8355 1045.12 50.9924 1044.55 51.1493C1044.55 50.3648 1044.45 49.3189 1044.09 48.3776C1045.22 48.5868 1045.78 49.8942 1046.04 50.6786ZM1043.58 51.4631C1042.6 51.7768 1041.52 52.1429 1040.39 52.4567C1040.7 51.2539 1041.27 50.0511 1041.98 49.3189C1042.24 49.0051 1042.6 48.6914 1043.06 48.5345C1043.47 49.3712 1043.58 50.6263 1043.58 51.4631ZM1041.52 47.4363C1041.88 47.4363 1042.19 47.4885 1042.4 47.6977C1041.98 47.9069 1041.63 48.2207 1041.21 48.6391C1040.29 49.685 1039.52 51.3062 1039.26 52.8228C1038.34 53.0842 1037.47 53.398 1036.64 53.6595C1037.21 51.2016 1039.21 47.5408 1041.52 47.4363Z" fill="#95BF47"/>
<path d="M1043.78 56.5357L1042.81 60.1964C1042.81 60.1964 1041.73 59.7258 1040.5 59.7781C1038.65 59.8827 1038.65 61.0855 1038.65 61.3992C1038.75 63.0204 1042.96 63.3865 1043.17 67.2041C1043.37 70.185 1041.63 72.2768 1039.11 72.4337C1036.08 72.6429 1034.44 70.8125 1034.44 70.8125L1035.05 68.0408C1035.05 68.0408 1036.75 69.3483 1038.08 69.2437C1038.95 69.1914 1039.26 68.4592 1039.26 67.9363C1039.11 65.7921 1035.72 65.949 1035.51 62.4452C1035.31 59.5166 1037.21 56.5357 1041.42 56.2742C1042.96 56.1173 1043.78 56.5357 1043.78 56.5357Z" fill="white"/>
<path d="M1052.92 52.2475C1052.82 52.2475 1050.61 52.1952 1050.61 52.1952C1050.61 52.1952 1048.76 50.3648 1048.61 50.2079C1048.51 50.1033 1048.4 50.1033 1048.3 50.051V77.8203L1056.52 75.7284C1056.52 75.7284 1053.18 52.6135 1053.13 52.4566C1053.13 52.3521 1053.03 52.2475 1052.92 52.2475Z" fill="#5E8E3E"/>
<defs>
<linearGradient id="paint0_linear_10_716" x1="201.099" y1="65.973" x2="235.673" y2="65.973" gradientUnits="userSpaceOnUse">
<stop offset="1e-07" stop-color="#FFB900"/>
<stop offset="0.3376" stop-color="#F38000"/>
<stop offset="0.5673" stop-color="#F83C72"/>
<stop offset="0.78" stop-color="#FC1CBE"/>
<stop offset="0.93" stop-color="#FE08ED"/>
<stop offset="1" stop-color="#FF00FF"/>
</linearGradient>
<linearGradient id="paint1_linear_10_716" x1="210.67" y1="77.4388" x2="245.499" y2="56.997" gradientUnits="userSpaceOnUse">
<stop stop-color="#EE0A3F"/>
<stop offset="1" stop-color="#EE0A3F" stop-opacity="0"/>
</linearGradient>
<linearGradient id="paint2_linear_10_716" x1="214.311" y1="71.6045" x2="248.087" y2="53.3771" gradientUnits="userSpaceOnUse">
<stop stop-color="#ED6600"/>
<stop offset="1" stop-color="#F98200"/>
</linearGradient>
</defs>
</svg>
