<svg width="12" height="13" viewBox="0 0 12 13" fill="none" xmlns="http://www.w3.org/2000/svg">
<path d="M11.7796 9.9115L9.04134 7.42187C8.91191 7.30422 8.74182 7.24148 8.56699 7.24688C8.39216 7.25229 8.22628 7.32542 8.10435 7.45083L6.49241 9.10856C6.10441 9.03447 5.32438 8.7913 4.52144 7.99039C3.7185 7.18678 3.47533 6.40473 3.40325 6.01943L5.05965 4.40683C5.18522 4.28499 5.25846 4.11908 5.26386 3.9442C5.26927 3.76932 5.20642 3.59921 5.08862 3.46985L2.59964 0.732331C2.48179 0.602566 2.31799 0.523854 2.14304 0.512911C1.96808 0.501969 1.79575 0.559658 1.66265 0.673727L0.200925 1.9273C0.0844657 2.04418 0.0149551 2.19974 0.00557878 2.36447C-0.00452532 2.53287 -0.197177 6.52193 2.89603 9.61646C5.59449 12.3142 8.97465 12.5116 9.90558 12.5116C10.0416 12.5116 10.1252 12.5076 10.1474 12.5062C10.3121 12.497 10.4676 12.4272 10.5839 12.3102L11.8368 10.8478C11.9513 10.7151 12.0094 10.5429 11.9987 10.368C11.988 10.1931 11.9094 10.0292 11.7796 9.9115Z" fill="#333939"/>
</svg>
