<svg width="16" height="14" viewBox="0 0 16 14" fill="none" xmlns="http://www.w3.org/2000/svg">
<path d="M15.2929 6.36396C15.6834 6.75448 15.6834 7.38765 15.2929 7.77817L15.2909 7.7802L9.63603 13.435C9.24551 13.8256 8.61234 13.8256 8.22182 13.435C7.83129 13.0445 7.83129 12.4113 8.22182 12.0208L12.2426 8L1 8C0.447716 8 0 7.55228 0 7C0 6.44772 0.447716 6 1 6L12.1005 6L8.22182 2.12132C7.8313 1.7308 7.8313 1.09763 8.22182 0.707107C8.61235 0.316582 9.24551 0.316582 9.63604 0.707107L15.2929 6.36396Z" fill="#333939"/>
</svg>
