<svg width="48" height="49" viewBox="0 0 48 49" fill="none" xmlns="http://www.w3.org/2000/svg">
<rect y="0.799194" width="48" height="48" rx="12.6296" fill="#202020"/>
<path d="M11.3617 18.2634H37.2338L37.6545 15.642H13.9559L11.3617 18.2634Z" fill="#F04A41"/>
<path d="M37.6548 10.3992H19.6004C19.355 10.3992 19.1096 10.504 18.9343 10.6788L16.5854 13.0205H38.1105L38.391 11.273C38.4611 10.8186 38.1105 10.3992 37.6548 10.3992Z" fill="#F04A41"/>
<path d="M11.3617 20.8498L13.9559 23.4711H31.4144L28.7851 20.8498H11.3617Z" fill="#F04A41"/>
<path d="M36.6381 28.7137L34.0088 26.0924H16.5854L19.2147 28.7137H36.6381Z" fill="#F04A41"/>
<path d="M10.3459 33.9566H34.0445L36.6738 31.3352H10.7666L10.3459 33.9566Z" fill="#F04A41"/>
<path d="M9.60891 38.2904C9.5388 38.7448 9.88937 39.1991 10.3802 39.1991H28.3995C28.6449 39.1991 28.8903 39.0943 29.0656 38.9195L31.4144 36.5778H9.88937L9.60891 38.2904Z" fill="#F04A41"/>
</svg>
