<svg width="30" height="30" viewBox="0 0 30 30" fill="none" xmlns="http://www.w3.org/2000/svg">
<path d="M29.5 14.571C29.5 22.3287 23.0219 28.6421 15 28.6421C6.9781 28.6421 0.5 22.3287 0.5 14.571C0.5 6.8134 6.9781 0.5 15 0.5C23.0219 0.5 29.5 6.8134 29.5 14.571Z" stroke="#333939"/>
<path d="M20.6875 11.1487C20.2691 11.324 19.8138 11.4502 19.3449 11.4994C19.8318 11.2184 20.1964 10.7745 20.3703 10.2509C19.9134 10.515 19.4129 10.7001 18.891 10.7981C18.6728 10.5716 18.409 10.3911 18.1159 10.268C17.8228 10.1448 17.5068 10.0816 17.1875 10.0823C15.8955 10.0823 14.8564 11.0996 14.8564 12.348C14.8564 12.5233 14.8783 12.6986 14.9138 12.8673C12.9793 12.769 11.2539 11.8712 10.1068 10.4966C9.89779 10.8434 9.78826 11.2383 9.78961 11.6401C9.78961 12.4264 10.2011 13.1196 10.8287 13.5273C10.4589 13.5132 10.0977 13.4145 9.77457 13.2392V13.267C9.77457 14.368 10.5757 15.2804 11.6435 15.4903C11.443 15.5409 11.2368 15.5667 11.0297 15.5673C10.8779 15.5673 10.7343 15.5527 10.5894 15.5328C10.8847 16.4306 11.7447 17.0826 12.7687 17.1039C11.9675 17.7135 10.964 18.0721 9.87438 18.0721C9.67887 18.0721 9.4984 18.0654 9.3111 18.0442C10.3447 18.6883 11.5711 19.0602 12.8918 19.0602C17.1793 19.0602 19.5254 15.6098 19.5254 12.6149C19.5254 12.5167 19.5254 12.4184 19.5185 12.3201C19.9724 11.9974 20.3703 11.5976 20.6875 11.1487Z" fill="#333939"/>
</svg>
