<svg width="30" height="30" viewBox="0 0 30 30" fill="none" xmlns="http://www.w3.org/2000/svg">
<path d="M29.5 14.571C29.5 22.3287 23.0219 28.6421 15 28.6421C6.9781 28.6421 0.5 22.3287 0.5 14.571C0.5 6.8134 6.9781 0.5 15 0.5C23.0219 0.5 29.5 6.8134 29.5 14.571Z" stroke="#333939"/>
<g clip-path="url(#clip0_319_383)">
<path d="M19.298 9.2808V13.5375H18.402V13.0615C18.0567 13.4151 17.7113 13.5919 17.366 13.5919C16.946 13.5919 16.736 13.338 16.736 12.8303V9.2808H17.632V12.5447C17.632 12.7351 17.7113 12.8303 17.87 12.8303C18.0287 12.8303 18.206 12.7215 18.402 12.5039V9.2808H19.298ZM15.98 10.2736V12.4767C15.98 12.8575 15.8633 13.1476 15.63 13.3471C15.3967 13.5466 15.0793 13.6463 14.678 13.6463C14.2953 13.6463 13.985 13.5398 13.747 13.3267C13.509 13.1136 13.39 12.8258 13.39 12.4631V10.26C13.39 9.90638 13.5183 9.63666 13.775 9.4508C14.0317 9.26493 14.3467 9.172 14.72 9.172C15.0747 9.172 15.3733 9.27173 15.616 9.4712C15.8587 9.67066 15.98 9.93812 15.98 10.2736ZM15.07 12.5447V10.2192C15.07 10.1285 15.028 10.0537 14.944 9.99478C14.86 9.93585 14.7713 9.90638 14.678 9.90638C14.5847 9.90638 14.5007 9.93585 14.426 9.99478C14.3513 10.0537 14.314 10.1285 14.314 10.2192V12.5447C14.314 12.7804 14.4353 12.8983 14.678 12.8983C14.9393 12.8983 15.07 12.7804 15.07 12.5447ZM12.41 7.77124H13.432L12.662 10.0152C12.6247 10.124 12.578 10.2486 12.522 10.3892C12.466 10.5297 12.417 10.6566 12.375 10.77C12.333 10.8833 12.298 11.008 12.27 11.144V13.5375H11.262V11.2527C11.2433 11.144 11.108 10.7586 10.856 10.0968L10.058 7.77124H11.08L11.724 10.0696H11.794L12.41 7.77124ZM20.964 17.8214C20.964 18.2656 20.936 18.9229 20.88 19.7933C20.8427 20.2466 20.663 20.607 20.341 20.8745C20.019 21.142 19.6247 21.2848 19.158 21.3029C18.234 21.3482 16.848 21.3709 15 21.3709C13.1427 21.3709 11.7567 21.3482 10.842 21.3029C10.3753 21.2848 9.98101 21.142 9.65901 20.8745C9.33701 20.607 9.15734 20.2466 9.12001 19.7933C9.06401 18.9229 9.03601 18.2656 9.03601 17.8214C9.03601 17.3771 9.06401 16.7198 9.12001 15.8494C9.15734 15.3961 9.33701 15.0357 9.65901 14.7683C9.98101 14.5008 10.3753 14.358 10.842 14.3399C11.7567 14.2945 13.1427 14.2719 15 14.2719C16.8573 14.2719 18.2433 14.2945 19.158 14.3399C19.6247 14.358 20.019 14.5008 20.341 14.7683C20.663 15.0357 20.8427 15.3961 20.88 15.8494C20.936 16.7198 20.964 17.3771 20.964 17.8214ZM19.97 19.0589V18.8006H19.228C19.228 18.8187 19.2303 18.8776 19.235 18.9773C19.2397 19.0771 19.2397 19.1473 19.235 19.1881C19.2303 19.2289 19.2187 19.2811 19.2 19.3445C19.1813 19.408 19.1487 19.4533 19.102 19.4805C19.0553 19.5077 18.99 19.5213 18.906 19.5213C18.8127 19.5213 18.7403 19.4941 18.689 19.4397C18.6377 19.3853 18.6097 19.3309 18.605 19.2765C18.6003 19.2221 18.598 19.1451 18.598 19.0453V18.3926H19.97V17.5222C19.97 17.2049 19.8813 16.9555 19.704 16.7742C19.5267 16.5929 19.2747 16.5022 18.948 16.5022C18.6307 16.5022 18.367 16.5951 18.157 16.781C17.947 16.9669 17.842 17.2139 17.842 17.5222V19.0589C17.842 19.3853 17.933 19.646 18.115 19.8409C18.297 20.0359 18.556 20.1333 18.892 20.1333C19.6107 20.1333 19.97 19.7752 19.97 19.0589ZM17.296 19.3173V17.4134C17.296 16.8422 17.0627 16.5566 16.596 16.5566C16.3627 16.5566 16.148 16.6609 15.952 16.8694V15.3734H15.224V20.0381H15.952V19.7661C16.1573 19.9747 16.386 20.0789 16.638 20.0789C17.0767 20.0789 17.296 19.8251 17.296 19.3173ZM13.796 20.0381H14.51V16.5974H13.796V19.2085C13.6373 19.3808 13.4927 19.4669 13.362 19.4669C13.2407 19.4669 13.18 19.3899 13.18 19.2357V16.5974H12.452V19.4941C12.452 19.8931 12.62 20.0925 12.956 20.0925C13.236 20.0925 13.516 19.9475 13.796 19.6573V20.0381ZM11.612 16.0534H12.466V15.3734H9.96001V16.0534H10.8V20.0381H11.612V16.0534ZM19.228 17.4814V17.8622H18.598V17.4814C18.598 17.2366 18.7053 17.1142 18.92 17.1142C19.1253 17.1142 19.228 17.2366 19.228 17.4814ZM16.554 17.4406V19.2493C16.554 19.4397 16.47 19.5349 16.302 19.5349C16.1713 19.5349 16.0547 19.4851 15.952 19.3853V17.2366C16.0453 17.1459 16.148 17.1006 16.26 17.1006C16.456 17.1006 16.554 17.2139 16.554 17.4406Z" fill="#333939"/>
</g>
<defs>
<clipPath id="clip0_319_383">
<rect width="14" height="13.5996" fill="white" transform="translate(8 7.77124)"/>
</clipPath>
</defs>
</svg>
