<svg width="25" height="24" viewBox="0 0 25 24" fill="none" xmlns="http://www.w3.org/2000/svg">
<path fill-rule="evenodd" clip-rule="evenodd" d="M12.5 24C19.1274 24 24.5 18.6274 24.5 12C24.5 5.37258 19.1274 0 12.5 0C5.87258 0 0.5 5.37258 0.5 12C0.5 18.6274 5.87258 24 12.5 24ZM7.55719 12.1618C7.03649 12.6825 7.03649 13.5267 7.55719 14.0474L9.44069 15.9309C9.4414 15.9316 9.4421 15.9323 9.44281 15.933C9.83333 16.3235 10.4058 16.4212 10.8874 16.2259C11.0479 16.1608 11.1983 16.0632 11.3284 15.933L16.9853 10.2761C17.506 9.75545 17.506 8.91123 16.9853 8.39053C16.4646 7.86983 15.6204 7.86983 15.0997 8.39053L10.3856 13.1046L9.44281 12.1618C8.92211 11.6411 8.07789 11.6411 7.55719 12.1618Z" fill="#2FAF91"/>
</svg>
